<svg xmlns="http://www.w3.org/2000/svg" xmlns:xlink="http://www.w3.org/1999/xlink" width="350" viewBox="0 0 262.5 74.999997" height="100" preserveAspectRatio="xMidYMid meet"><defs><g></g><clipPath id="4350de92f8"><path d="M 17.664062 8.6875 L 33.335938 8.6875 L 33.335938 24.160156 L 17.664062 24.160156 Z M 17.664062 8.6875 " clip-rule="nonzero"></path></clipPath><clipPath id="dddec8df05"><path d="M 33.148438 16.464844 C 33.148438 20.714844 29.683594 24.160156 25.414062 24.160156 C 21.144531 24.160156 17.679688 20.714844 17.679688 16.464844 C 17.679688 12.214844 21.144531 8.769531 25.414062 8.769531 C 29.683594 8.769531 33.148438 12.214844 33.148438 16.464844 " clip-rule="nonzero"></path></clipPath><clipPath id="9b23166cf5"><path d="M 14.8125 37.59375 L 24.175781 37.59375 L 24.175781 46.957031 L 14.8125 46.957031 Z M 14.8125 37.59375 " clip-rule="nonzero"></path></clipPath><clipPath id="ea009bd9a0"><path d="M 24.152344 42.210938 C 24.152344 44.738281 22.09375 46.789062 19.550781 46.789062 C 17.007812 46.789062 14.949219 44.738281 14.949219 42.210938 C 14.949219 39.683594 17.007812 37.632812 19.550781 37.632812 C 22.09375 37.632812 24.152344 39.683594 24.152344 42.210938 " clip-rule="nonzero"></path></clipPath><clipPath id="03d29bd09f"><path d="M 12.574219 47.160156 L 20.917969 47.160156 L 20.917969 55.507812 L 12.574219 55.507812 Z M 12.574219 47.160156 " clip-rule="nonzero"></path></clipPath><clipPath id="f190bdff82"><path d="M 20.804688 51.148438 C 20.867188 53.402344 19.078125 55.277344 16.816406 55.335938 C 14.550781 55.398438 12.667969 53.621094 12.605469 51.367188 C 12.546875 49.117188 14.335938 47.238281 16.597656 47.179688 C 18.863281 47.117188 20.746094 48.894531 20.804688 51.148438 " clip-rule="nonzero"></path></clipPath><clipPath id="a6ca82f36a"><path d="M 6.464844 54.082031 L 13.589844 54.082031 L 13.589844 61 L 6.464844 61 Z M 6.464844 54.082031 " clip-rule="nonzero"></path></clipPath><clipPath id="ae3b499b3b"><path d="M 13.417969 57.410156 C 13.464844 59.277344 11.988281 60.828125 10.113281 60.878906 C 8.238281 60.929688 6.675781 59.457031 6.628906 57.589844 C 6.578125 55.726562 8.058594 54.171875 9.929688 54.121094 C 11.804688 54.074219 13.367188 55.546875 13.417969 57.410156 " clip-rule="nonzero"></path></clipPath><clipPath id="412660d52c"><path d="M 26.414062 37.59375 L 35.78125 37.59375 L 35.78125 46.957031 L 26.414062 46.957031 Z M 26.414062 37.59375 " clip-rule="nonzero"></path></clipPath><clipPath id="ccaaf26d04"><path d="M 26.605469 42.210938 C 26.605469 44.730469 28.660156 46.773438 31.191406 46.773438 C 33.726562 46.773438 35.777344 44.730469 35.777344 42.210938 C 35.777344 39.691406 33.726562 37.648438 31.191406 37.648438 C 28.660156 37.648438 26.605469 39.691406 26.605469 42.210938 " clip-rule="nonzero"></path></clipPath><clipPath id="cc69d8d9c3"><path d="M 30 47.160156 L 38.222656 47.160156 L 38.222656 55.304688 L 30 55.304688 Z M 30 47.160156 " clip-rule="nonzero"></path></clipPath><clipPath id="a361d28436"><path d="M 30.003906 51.148438 C 29.945312 53.367188 31.703125 55.210938 33.929688 55.273438 C 36.160156 55.332031 38.015625 53.582031 38.074219 51.367188 C 38.132812 49.152344 36.375 47.304688 34.148438 47.242188 C 31.917969 47.183594 30.0625 48.933594 30.003906 51.148438 " clip-rule="nonzero"></path></clipPath><clipPath id="41edd9787f"><path d="M 37.613281 54.082031 L 44.734375 54.082031 L 44.734375 61 L 37.613281 61 Z M 37.613281 54.082031 " clip-rule="nonzero"></path></clipPath><clipPath id="76c7e9666b"><path d="M 37.777344 57.410156 C 37.730469 59.273438 39.203125 60.824219 41.078125 60.875 C 42.953125 60.921875 44.507812 59.453125 44.558594 57.589844 C 44.609375 55.726562 43.132812 54.175781 41.261719 54.128906 C 39.390625 54.078125 37.832031 55.546875 37.78125 57.410156 " clip-rule="nonzero"></path></clipPath><clipPath id="921794e0e7"><path d="M 10.128906 29.65625 L 16.238281 29.65625 L 16.238281 35.558594 L 10.128906 35.558594 Z M 10.128906 29.65625 " clip-rule="nonzero"></path></clipPath><clipPath id="2bbf537825"><path d="M 10.953125 34.636719 C 12.058594 35.796875 13.910156 35.828125 15.097656 34.707031 C 16.285156 33.589844 16.355469 31.746094 15.253906 30.589844 C 14.15625 29.433594 12.300781 29.402344 11.109375 30.519531 C 9.921875 31.636719 9.855469 33.480469 10.953125 34.636719 " clip-rule="nonzero"></path></clipPath><clipPath id="5b10b11bc3"><path d="M 4.226562 31.285156 L 9.113281 31.285156 L 9.113281 35.964844 L 4.226562 35.964844 Z M 4.226562 31.285156 " clip-rule="nonzero"></path></clipPath><clipPath id="59c52d2532"><path d="M 4.4375 34.117188 C 4.691406 35.367188 5.914062 36.171875 7.171875 35.917969 C 8.429688 35.664062 9.242188 34.441406 8.992188 33.191406 C 8.738281 31.941406 7.515625 31.136719 6.257812 31.390625 C 5 31.648438 4.1875 32.867188 4.4375 34.117188 " clip-rule="nonzero"></path></clipPath><clipPath id="4c334705aa"><path d="M 0.359375 29.453125 L 4 29.453125 L 4 33.117188 L 0.359375 33.117188 Z M 0.359375 29.453125 " clip-rule="nonzero"></path></clipPath><clipPath id="4d5009e629"><path d="M 0.464844 31.042969 C 0.304688 31.992188 0.945312 32.875 1.902344 33.015625 C 2.855469 33.152344 3.757812 32.488281 3.917969 31.539062 C 4.074219 30.585938 3.433594 29.703125 2.480469 29.566406 C 1.527344 29.425781 0.625 30.089844 0.464844 31.042969 " clip-rule="nonzero"></path></clipPath><clipPath id="d37b0c3ae2"><path d="M 19.496094 25.378906 L 31.300781 25.378906 L 31.300781 37 L 19.496094 37 Z M 19.496094 25.378906 " clip-rule="nonzero"></path></clipPath><clipPath id="2144573215"><path d="M 31.195312 31.234375 C 31.195312 34.410156 28.609375 36.984375 25.414062 36.984375 C 22.21875 36.984375 19.632812 34.410156 19.632812 31.234375 C 19.632812 28.054688 22.21875 25.480469 25.414062 25.480469 C 28.609375 25.480469 31.195312 28.054688 31.195312 31.234375 " clip-rule="nonzero"></path></clipPath><clipPath id="bfbf2caf71"><path d="M 34.152344 29.453125 L 40.257812 29.453125 L 40.257812 35.558594 L 34.152344 35.558594 Z M 34.152344 29.453125 " clip-rule="nonzero"></path></clipPath><clipPath id="e5514c9367"><path d="M 39.398438 34.503906 C 38.289062 35.648438 36.433594 35.664062 35.257812 34.53125 C 34.082031 33.402344 34.03125 31.554688 35.144531 30.410156 C 36.257812 29.261719 38.113281 29.253906 39.289062 30.382812 C 40.464844 31.515625 40.511719 33.359375 39.398438 34.503906 " clip-rule="nonzero"></path></clipPath><clipPath id="a65df18c93"><path d="M 41.277344 31.082031 L 46 31.082031 L 46 35.964844 L 41.277344 35.964844 Z M 41.277344 31.082031 " clip-rule="nonzero"></path></clipPath><clipPath id="436bee7e68"><path d="M 45.921875 34.054688 C 45.65625 35.300781 44.421875 36.09375 43.171875 35.828125 C 41.917969 35.558594 41.113281 34.332031 41.378906 33.082031 C 41.644531 31.835938 42.878906 31.042969 44.132812 31.3125 C 45.386719 31.578125 46.1875 32.804688 45.917969 34.054688 " clip-rule="nonzero"></path></clipPath><clipPath id="8772b43433"><path d="M 46.363281 29.453125 L 50 29.453125 L 50 33 L 46.363281 33 Z M 46.363281 29.453125 " clip-rule="nonzero"></path></clipPath><clipPath id="b6d580691c"><path d="M 49.925781 31.019531 C 50.074219 31.972656 49.421875 32.847656 48.46875 32.976562 C 47.511719 33.105469 46.617188 32.433594 46.464844 31.480469 C 46.316406 30.527344 46.96875 29.652344 47.925781 29.523438 C 48.882812 29.394531 49.773438 30.066406 49.925781 31.023438 " clip-rule="nonzero"></path></clipPath><clipPath id="dd6bcb38d4"><path d="M 63.671875 17.367188 L 90.242188 17.367188 L 90.242188 41.660156 L 63.671875 41.660156 Z M 63.671875 17.367188 " clip-rule="nonzero"></path></clipPath><clipPath id="b6406d4ed4"><path d="M 71.71875 29.769531 C 69.96875 29.769531 69.894531 29.84375 69.894531 30.9375 L 69.894531 36.078125 C 69.894531 39.910156 70.078125 40.421875 72.121094 40.640625 L 73.179688 40.75 C 73.398438 40.894531 73.324219 41.550781 73.105469 41.660156 C 71.136719 41.589844 69.894531 41.550781 68.472656 41.550781 C 66.902344 41.550781 65.664062 41.625 64.242188 41.660156 C 64.023438 41.550781 63.949219 40.96875 64.167969 40.75 L 64.789062 40.640625 C 66.832031 40.273438 66.902344 39.910156 66.902344 36.078125 L 66.902344 22.949219 C 66.902344 19.117188 66.648438 18.496094 64.75 18.351562 L 63.804688 18.277344 C 63.585938 18.132812 63.65625 17.476562 63.875 17.367188 C 65.664062 17.402344 66.902344 17.476562 68.472656 17.476562 C 69.894531 17.476562 71.136719 17.441406 72.703125 17.367188 C 72.921875 17.476562 72.996094 18.132812 72.777344 18.277344 L 72.082031 18.351562 C 69.96875 18.570312 69.894531 19.117188 69.894531 22.949219 L 69.894531 27.144531 C 69.894531 28.273438 69.96875 28.308594 71.71875 28.308594 L 82.152344 28.308594 C 83.902344 28.308594 83.976562 28.273438 83.976562 27.144531 L 83.976562 22.949219 C 83.976562 19.117188 83.902344 18.570312 81.75 18.351562 L 81.058594 18.277344 C 80.839844 18.132812 80.910156 17.476562 81.128906 17.367188 C 82.808594 17.441406 84.046875 17.476562 85.542969 17.476562 C 86.96875 17.476562 88.207031 17.441406 89.847656 17.367188 C 90.066406 17.476562 90.140625 18.132812 89.921875 18.277344 L 89.15625 18.351562 C 87.039062 18.570312 86.96875 19.117188 86.96875 22.949219 L 86.96875 36.078125 C 86.96875 39.910156 87.039062 40.382812 89.15625 40.640625 L 90.03125 40.75 C 90.25 40.894531 90.175781 41.550781 89.957031 41.660156 C 88.207031 41.589844 86.96875 41.550781 85.542969 41.550781 C 84.046875 41.550781 82.734375 41.589844 81.128906 41.660156 C 80.910156 41.550781 80.839844 40.96875 81.058594 40.75 L 81.75 40.640625 C 83.976562 40.273438 83.976562 39.910156 83.976562 36.078125 L 83.976562 30.9375 C 83.976562 29.84375 83.902344 29.769531 82.152344 29.769531 Z M 71.71875 29.769531 " clip-rule="nonzero"></path></clipPath><clipPath id="1b0e493168"><path d="M 93.070312 17.367188 L 109.648438 17.367188 L 109.648438 41.679688 L 93.070312 41.679688 Z M 93.070312 17.367188 " clip-rule="nonzero"></path></clipPath><clipPath id="5b95fdb602"><path d="M 99.296875 27.761719 C 99.296875 28.746094 99.40625 28.746094 100.5 28.746094 L 102.980469 28.746094 C 104.476562 28.746094 105.644531 28.675781 106.082031 28.527344 C 106.484375 28.382812 106.773438 28.199219 106.992188 27.253906 L 107.320312 25.792969 C 107.503906 25.574219 108.125 25.574219 108.269531 25.792969 C 108.269531 26.667969 108.125 28.128906 108.125 29.476562 C 108.125 30.789062 108.269531 32.175781 108.269531 33.015625 C 108.125 33.234375 107.578125 33.234375 107.320312 33.015625 L 106.957031 31.59375 C 106.773438 30.9375 106.484375 30.425781 105.789062 30.207031 C 105.277344 30.0625 104.367188 30.023438 102.980469 30.023438 L 100.5 30.023438 C 99.40625 30.023438 99.296875 30.0625 99.296875 31.007812 L 99.296875 36.078125 C 99.296875 39.910156 99.371094 40.457031 101.523438 40.640625 L 102.761719 40.75 C 102.980469 40.894531 102.90625 41.550781 102.6875 41.660156 C 100.535156 41.589844 99.296875 41.550781 97.835938 41.550781 C 96.230469 41.550781 94.992188 41.589844 93.277344 41.660156 C 93.058594 41.550781 92.984375 40.96875 93.203125 40.75 L 94.117188 40.640625 C 96.230469 40.382812 96.304688 39.910156 96.304688 36.078125 L 96.304688 22.949219 C 96.304688 19.117188 96.230469 18.605469 94.117188 18.351562 L 93.53125 18.277344 C 93.3125 18.132812 93.386719 17.476562 93.605469 17.367188 C 95.136719 17.441406 96.378906 17.476562 97.835938 17.476562 L 104.550781 17.476562 C 106.882812 17.476562 109 17.476562 109.472656 17.367188 C 109.472656 19.042969 109.511719 20.796875 109.582031 22.183594 C 109.472656 22.402344 108.964844 22.511719 108.707031 22.292969 C 108.414062 20.648438 107.976562 19.300781 106.15625 18.824219 C 105.351562 18.605469 104.148438 18.605469 102.617188 18.605469 L 100.390625 18.605469 C 99.296875 18.605469 99.296875 18.679688 99.296875 20.066406 Z M 99.296875 27.761719 " clip-rule="nonzero"></path></clipPath><clipPath id="d39b3462b9"><path d="M 112.332031 17.367188 L 132.277344 17.367188 L 132.277344 41.734375 L 112.332031 41.734375 Z M 112.332031 17.367188 " clip-rule="nonzero"></path></clipPath><clipPath id="35662f66ca"><path d="M 115.929688 22.949219 C 115.929688 19.152344 115.859375 18.605469 113.707031 18.351562 L 113.121094 18.277344 C 112.902344 18.132812 112.976562 17.476562 113.195312 17.367188 C 114.761719 17.441406 116.003906 17.476562 117.5 17.476562 L 124.355469 17.476562 C 126.691406 17.476562 128.84375 17.476562 129.28125 17.367188 C 129.5 17.988281 129.71875 20.613281 129.863281 22.21875 C 129.71875 22.4375 129.136719 22.511719 128.953125 22.292969 C 128.40625 20.578125 128.078125 19.300781 126.179688 18.824219 C 125.414062 18.644531 124.246094 18.605469 122.640625 18.605469 L 120.015625 18.605469 C 118.921875 18.605469 118.921875 18.679688 118.921875 20.066406 L 118.921875 27.363281 C 118.921875 28.382812 119.03125 28.382812 120.125 28.382812 L 122.242188 28.382812 C 123.773438 28.382812 124.902344 28.308594 125.339844 28.164062 C 125.78125 28.019531 126.035156 27.800781 126.21875 26.886719 L 126.507812 25.390625 C 126.691406 25.171875 127.3125 25.171875 127.457031 25.429688 C 127.457031 26.304688 127.3125 27.726562 127.3125 29.113281 C 127.3125 30.425781 127.457031 31.8125 127.457031 32.613281 C 127.3125 32.871094 126.691406 32.871094 126.507812 32.652344 L 126.179688 31.226562 C 126.035156 30.570312 125.78125 30.023438 125.050781 29.84375 C 124.539062 29.695312 123.664062 29.660156 122.242188 29.660156 L 120.125 29.660156 C 119.03125 29.660156 118.921875 29.695312 118.921875 30.644531 L 118.921875 35.789062 C 118.921875 37.722656 119.03125 38.960938 119.613281 39.582031 C 120.050781 40.019531 120.820312 40.421875 124.027344 40.421875 C 126.835938 40.421875 127.894531 40.273438 128.699219 39.875 C 129.355469 39.507812 130.339844 38.230469 131.289062 36.335938 C 131.542969 36.152344 132.054688 36.261719 132.199219 36.589844 C 131.945312 37.867188 131.03125 40.675781 130.558594 41.660156 L 120.78125 41.550781 L 117.5 41.550781 C 115.929688 41.550781 114.691406 41.589844 112.539062 41.660156 C 112.320312 41.550781 112.246094 40.96875 112.464844 40.75 L 113.667969 40.640625 C 115.75 40.457031 115.929688 39.910156 115.929688 36.078125 Z M 115.929688 22.949219 " clip-rule="nonzero"></path></clipPath><clipPath id="ff5cfae374"><path d="M 143.078125 17.359375 L 152.695312 17.359375 L 152.695312 41.675781 L 143.078125 41.675781 Z M 143.078125 17.359375 " clip-rule="nonzero"></path></clipPath><clipPath id="3be3140e8d"><path d="M 146.351562 23.019531 C 146.351562 19.152344 146.28125 18.535156 144.128906 18.351562 L 143.214844 18.277344 C 142.996094 18.132812 143.070312 17.476562 143.289062 17.367188 C 145.113281 17.441406 146.351562 17.476562 147.886719 17.476562 C 149.34375 17.476562 150.585938 17.441406 152.410156 17.367188 C 152.628906 17.476562 152.699219 18.132812 152.480469 18.277344 L 151.570312 18.351562 C 149.417969 18.535156 149.34375 19.152344 149.34375 23.019531 L 149.34375 36.007812 C 149.34375 39.875 149.417969 40.382812 151.570312 40.640625 L 152.480469 40.75 C 152.699219 40.894531 152.628906 41.550781 152.410156 41.660156 C 150.585938 41.589844 149.34375 41.550781 147.886719 41.550781 C 146.351562 41.550781 145.113281 41.589844 143.289062 41.660156 C 143.070312 41.550781 142.996094 40.96875 143.214844 40.75 L 144.128906 40.640625 C 146.28125 40.382812 146.351562 39.875 146.351562 36.007812 Z M 146.351562 23.019531 " clip-rule="nonzero"></path></clipPath><clipPath id="9d8c47fc5e"><path d="M 154.75 26.113281 L 172 26.113281 L 172 41.675781 L 154.75 41.675781 Z M 154.75 26.113281 " clip-rule="nonzero"></path></clipPath><clipPath id="90e916edcb"><path d="M 157.148438 31.082031 C 157.148438 29.660156 157.148438 29.476562 156.164062 28.820312 L 155.835938 28.601562 C 155.691406 28.457031 155.691406 28.054688 155.875 27.945312 C 156.710938 27.652344 158.792969 26.707031 159.519531 26.15625 L 159.851562 26.230469 C 159.851562 27.253906 159.851562 27.800781 159.851562 28.128906 C 159.851562 28.347656 159.996094 28.527344 160.25 28.527344 C 161.78125 27.582031 163.496094 26.667969 165.359375 26.667969 C 168.386719 26.667969 169.625 28.746094 169.625 31.191406 L 169.625 37.464844 C 169.625 40.09375 169.699219 40.457031 171.011719 40.640625 L 171.816406 40.75 C 172.070312 40.929688 171.996094 41.550781 171.742188 41.660156 C 170.648438 41.589844 169.589844 41.550781 168.3125 41.550781 C 167 41.550781 165.90625 41.589844 164.921875 41.660156 C 164.664062 41.550781 164.59375 40.929688 164.847656 40.75 L 165.539062 40.640625 C 166.890625 40.421875 166.925781 40.09375 166.925781 37.464844 L 166.925781 32.03125 C 166.925781 29.953125 165.976562 28.417969 163.496094 28.417969 C 162.113281 28.417969 160.90625 29.003906 160.398438 29.695312 C 159.921875 30.316406 159.851562 30.828125 159.851562 31.886719 L 159.851562 37.464844 C 159.851562 40.09375 159.921875 40.421875 161.234375 40.640625 L 161.890625 40.75 C 162.148438 40.929688 162.074219 41.550781 161.820312 41.660156 C 160.835938 41.589844 159.777344 41.550781 158.5 41.550781 C 157.1875 41.550781 156.09375 41.589844 155.070312 41.660156 C 154.816406 41.550781 154.742188 40.929688 155 40.75 L 155.765625 40.640625 C 157.113281 40.457031 157.148438 40.09375 157.148438 37.464844 Z M 157.148438 31.082031 " clip-rule="nonzero"></path></clipPath><clipPath id="b37ec975f7"><path d="M 173.769531 26.65625 L 183.496094 26.65625 L 183.496094 42.109375 L 173.769531 42.109375 Z M 173.769531 26.65625 " clip-rule="nonzero"></path></clipPath><clipPath id="9116421302"><path d="M 182.722656 27.324219 C 183.050781 28.128906 183.304688 29.296875 183.304688 30.28125 C 183.160156 30.535156 182.613281 30.609375 182.429688 30.390625 C 181.808594 28.785156 180.714844 27.726562 179.21875 27.726562 C 177.796875 27.726562 176.886719 28.636719 176.886719 29.953125 C 176.886719 31.445312 178.417969 32.25 179.695312 32.980469 C 181.628906 34.074219 183.414062 35.3125 183.414062 37.902344 C 183.414062 40.675781 180.859375 42.0625 178.160156 42.0625 C 176.445312 42.0625 175.171875 41.699219 174.257812 40.96875 C 173.964844 40.273438 173.746094 38.488281 173.820312 37.285156 C 174.003906 37.066406 174.476562 37.027344 174.660156 37.246094 C 175.28125 39.253906 176.445312 41.003906 178.527344 41.003906 C 179.839844 41.003906 180.96875 40.238281 180.96875 38.667969 C 180.96875 36.992188 179.511719 36.078125 178.160156 35.3125 C 176.046875 34.109375 174.550781 32.832031 174.550781 30.828125 C 174.550781 28.164062 176.738281 26.667969 179.511719 26.667969 C 181.042969 26.667969 182.394531 27.035156 182.722656 27.324219 " clip-rule="nonzero"></path></clipPath><clipPath id="566ea28f58"><path d="M 185.65625 24.601562 L 195.492188 24.601562 L 195.492188 42.109375 L 185.65625 42.109375 Z M 185.65625 24.601562 " clip-rule="nonzero"></path></clipPath><clipPath id="6c4a3d5f48"><path d="M 191.074219 28.710938 C 190.453125 28.710938 190.417969 28.820312 190.417969 29.585938 L 190.417969 36.410156 C 190.417969 38.523438 190.671875 40.457031 193.082031 40.457031 C 193.445312 40.457031 193.773438 40.382812 194.066406 40.273438 C 194.394531 40.164062 194.867188 39.765625 194.976562 39.765625 C 195.269531 39.765625 195.414062 40.164062 195.34375 40.382812 C 194.6875 41.148438 193.371094 42.0625 191.511719 42.0625 C 188.375 42.0625 187.71875 40.3125 187.71875 38.121094 L 187.71875 29.769531 C 187.71875 28.785156 187.683594 28.710938 186.953125 28.710938 L 185.929688 28.710938 C 185.710938 28.566406 185.675781 28.164062 185.820312 27.945312 C 186.878906 27.617188 187.792969 27.144531 188.15625 26.816406 C 188.628906 26.375 189.324219 25.390625 189.6875 24.664062 C 189.871094 24.589844 190.308594 24.589844 190.453125 24.84375 L 190.453125 26.484375 C 190.453125 27.144531 190.492188 27.179688 191.109375 27.179688 L 195.160156 27.179688 C 195.597656 27.507812 195.523438 28.492188 195.195312 28.710938 Z M 191.074219 28.710938 " clip-rule="nonzero"></path></clipPath><clipPath id="928f0eb144"><path d="M 196.894531 18.765625 L 204.351562 18.765625 L 204.351562 41.675781 L 196.894531 41.675781 Z M 196.894531 18.765625 " clip-rule="nonzero"></path></clipPath><clipPath id="8c8d6bc886"><path d="M 202.308594 20.6875 C 202.308594 22 201.398438 22.582031 200.375 22.582031 C 199.246094 22.582031 198.515625 21.742188 198.515625 20.757812 C 198.515625 19.554688 199.390625 18.789062 200.484375 18.789062 C 201.582031 18.789062 202.308594 19.664062 202.308594 20.6875 M 199.28125 31.082031 C 199.28125 29.660156 199.28125 29.476562 198.296875 28.820312 L 197.96875 28.601562 C 197.824219 28.457031 197.824219 28.054688 198.003906 27.945312 C 198.84375 27.652344 200.925781 26.707031 201.761719 26.15625 L 202.089844 26.230469 C 202.054688 27.652344 201.980469 29.40625 201.980469 30.898438 L 201.980469 37.464844 C 201.980469 40.09375 202.054688 40.457031 203.367188 40.640625 L 204.132812 40.75 C 204.390625 40.929688 204.316406 41.550781 204.0625 41.660156 C 202.964844 41.589844 201.910156 41.550781 200.632812 41.550781 C 199.320312 41.550781 198.222656 41.589844 197.203125 41.660156 C 196.949219 41.550781 196.875 40.929688 197.128906 40.75 L 197.894531 40.640625 C 199.246094 40.457031 199.28125 40.09375 199.28125 37.464844 Z M 199.28125 31.082031 " clip-rule="nonzero"></path></clipPath><clipPath id="d0b5463eb7"><path d="M 206.296875 24.601562 L 216.132812 24.601562 L 216.132812 42.109375 L 206.296875 42.109375 Z M 206.296875 24.601562 " clip-rule="nonzero"></path></clipPath><clipPath id="5bc5a91618"><path d="M 211.644531 28.710938 C 211.027344 28.710938 210.988281 28.820312 210.988281 29.585938 L 210.988281 36.410156 C 210.988281 38.523438 211.246094 40.457031 213.652344 40.457031 C 214.015625 40.457031 214.34375 40.382812 214.636719 40.273438 C 214.964844 40.164062 215.441406 39.765625 215.550781 39.765625 C 215.839844 39.765625 215.988281 40.164062 215.914062 40.382812 C 215.257812 41.148438 213.945312 42.0625 212.082031 42.0625 C 208.945312 42.0625 208.289062 40.3125 208.289062 38.121094 L 208.289062 29.769531 C 208.289062 28.785156 208.253906 28.710938 207.523438 28.710938 L 206.503906 28.710938 C 206.285156 28.566406 206.246094 28.164062 206.394531 27.945312 C 207.449219 27.617188 208.363281 27.144531 208.726562 26.816406 C 209.203125 26.375 209.894531 25.390625 210.257812 24.664062 C 210.441406 24.589844 210.878906 24.589844 211.027344 24.84375 L 211.027344 26.484375 C 211.027344 27.144531 211.0625 27.179688 211.683594 27.179688 L 215.730469 27.179688 C 216.167969 27.507812 216.097656 28.492188 215.769531 28.710938 Z M 211.644531 28.710938 " clip-rule="nonzero"></path></clipPath><clipPath id="def07c0f32"><path d="M 217.644531 26.65625 L 234.613281 26.65625 L 234.613281 42.433594 L 217.644531 42.433594 Z M 217.644531 26.65625 " clip-rule="nonzero"></path></clipPath><clipPath id="b666668b68"><path d="M 222.078125 36.1875 C 222.078125 38.707031 222.699219 40.382812 225.472656 40.382812 C 226.457031 40.382812 227.625 39.984375 228.425781 39.289062 C 228.898438 38.851562 229.15625 38.304688 229.15625 37.175781 L 229.15625 31.191406 C 229.15625 28.820312 228.898438 28.746094 227.804688 28.308594 L 227.332031 28.128906 C 227.074219 27.980469 227.074219 27.472656 227.367188 27.324219 C 228.828125 27.289062 230.832031 27.035156 231.636719 26.667969 L 231.925781 26.777344 C 231.890625 27.617188 231.855469 28.746094 231.855469 30.097656 L 231.855469 36.226562 C 231.855469 39.109375 231.964844 40.203125 232.984375 40.203125 C 233.421875 40.203125 233.898438 40.128906 234.40625 40.019531 C 234.625 40.203125 234.664062 40.929688 234.371094 41.078125 C 232.949219 41.371094 230.832031 41.734375 229.59375 42.425781 L 229.226562 42.316406 L 229.15625 40.675781 C 229.15625 40.347656 229.046875 40.164062 228.828125 40.164062 C 227.734375 40.859375 225.945312 42.0625 223.792969 42.0625 C 220.582031 42.0625 219.378906 40.457031 219.378906 37.503906 L 219.378906 31.410156 C 219.378906 29.113281 219.378906 28.785156 218.285156 28.308594 L 217.847656 28.128906 C 217.628906 27.945312 217.664062 27.433594 217.921875 27.324219 C 219.597656 27.289062 221.019531 26.960938 221.824219 26.667969 L 222.152344 26.777344 C 222.113281 27.542969 222.078125 28.308594 222.078125 30.097656 Z M 222.078125 36.1875 " clip-rule="nonzero"></path></clipPath><clipPath id="9bdf9467f5"><path d="M 236.125 24.601562 L 245.960938 24.601562 L 245.960938 42.109375 L 236.125 42.109375 Z M 236.125 24.601562 " clip-rule="nonzero"></path></clipPath><clipPath id="8a742d87aa"><path d="M 241.519531 28.710938 C 240.902344 28.710938 240.863281 28.820312 240.863281 29.585938 L 240.863281 36.410156 C 240.863281 38.523438 241.121094 40.457031 243.527344 40.457031 C 243.890625 40.457031 244.21875 40.382812 244.511719 40.273438 C 244.839844 40.164062 245.316406 39.765625 245.425781 39.765625 C 245.714844 39.765625 245.863281 40.164062 245.789062 40.382812 C 245.132812 41.148438 243.820312 42.0625 241.960938 42.0625 C 238.820312 42.0625 238.164062 40.3125 238.164062 38.121094 L 238.164062 29.769531 C 238.164062 28.785156 238.128906 28.710938 237.398438 28.710938 L 236.378906 28.710938 C 236.160156 28.566406 236.121094 28.164062 236.269531 27.945312 C 237.328125 27.617188 238.238281 27.144531 238.601562 26.816406 C 239.078125 26.375 239.769531 25.390625 240.136719 24.664062 C 240.316406 24.589844 240.753906 24.589844 240.902344 24.84375 L 240.902344 26.484375 C 240.902344 27.144531 240.9375 27.179688 241.558594 27.179688 L 245.605469 27.179688 C 246.042969 27.507812 245.972656 28.492188 245.644531 28.710938 Z M 241.519531 28.710938 " clip-rule="nonzero"></path></clipPath><clipPath id="20c643fd70"><path d="M 247.363281 26.65625 L 260 26.65625 L 260 42.109375 L 247.363281 42.109375 Z M 247.363281 26.65625 " clip-rule="nonzero"></path></clipPath><clipPath id="a3f83e8ca8"><path d="M 253.15625 31.117188 C 255.855469 31.117188 256.660156 30.972656 256.953125 30.753906 C 257.0625 30.679688 257.171875 30.535156 257.171875 30.0625 C 257.171875 29.039062 256.476562 27.761719 254.363281 27.761719 C 252.210938 27.761719 250.347656 29.734375 250.3125 30.9375 L 250.3125 31.117188 Z M 250.894531 32.214844 C 249.949219 32.214844 249.910156 32.285156 249.910156 33.199219 C 249.910156 36.882812 252.0625 40.019531 255.964844 40.019531 C 257.171875 40.019531 258.191406 39.65625 259.324219 38.230469 C 259.6875 38.121094 259.941406 38.339844 259.980469 38.667969 C 258.773438 41.148438 256.148438 42.0625 254.253906 42.0625 C 251.882812 42.0625 250.019531 41.039062 248.960938 39.65625 C 247.867188 38.230469 247.429688 36.519531 247.429688 34.914062 C 247.429688 30.425781 250.386719 26.667969 254.761719 26.667969 C 257.898438 26.667969 259.941406 28.820312 259.941406 31.007812 C 259.941406 31.519531 259.871094 31.8125 259.796875 31.957031 C 259.6875 32.175781 259.175781 32.214844 257.644531 32.214844 Z M 250.894531 32.214844 " clip-rule="nonzero"></path></clipPath></defs><g clip-path="url(#4350de92f8)"><g clip-path="url(#dddec8df05)"><path fill="#ffffff" d="M -0.863281 7.46875 L 51.25 7.46875 L 51.25 62.226562 L -0.863281 62.226562 Z M -0.863281 7.46875 " fill-opacity="1" fill-rule="nonzero"></path></g></g><g clip-path="url(#9b23166cf5)"><g clip-path="url(#ea009bd9a0)"><path fill="#ffffff" d="M -0.863281 7.46875 L 51.25 7.46875 L 51.25 62.226562 L -0.863281 62.226562 Z M -0.863281 7.46875 " fill-opacity="1" fill-rule="nonzero"></path></g></g><g clip-path="url(#03d29bd09f)"><g clip-path="url(#f190bdff82)"><path fill="#ffffff" d="M -0.863281 7.46875 L 51.25 7.46875 L 51.25 62.226562 L -0.863281 62.226562 Z M -0.863281 7.46875 " fill-opacity="1" fill-rule="nonzero"></path></g></g><g clip-path="url(#a6ca82f36a)"><g clip-path="url(#ae3b499b3b)"><path fill="#ffffff" d="M -0.863281 7.46875 L 51.25 7.46875 L 51.25 62.226562 L -0.863281 62.226562 Z M -0.863281 7.46875 " fill-opacity="1" fill-rule="nonzero"></path></g></g><g clip-path="url(#412660d52c)"><g clip-path="url(#ccaaf26d04)"><path fill="#ffffff" d="M -0.863281 7.46875 L 51.25 7.46875 L 51.25 62.226562 L -0.863281 62.226562 Z M -0.863281 7.46875 " fill-opacity="1" fill-rule="nonzero"></path></g></g><g clip-path="url(#cc69d8d9c3)"><g clip-path="url(#a361d28436)"><path fill="#ffffff" d="M -0.863281 7.46875 L 51.25 7.46875 L 51.25 62.226562 L -0.863281 62.226562 Z M -0.863281 7.46875 " fill-opacity="1" fill-rule="nonzero"></path></g></g><g clip-path="url(#41edd9787f)"><g clip-path="url(#76c7e9666b)"><path fill="#ffffff" d="M -0.863281 7.46875 L 51.25 7.46875 L 51.25 62.226562 L -0.863281 62.226562 Z M -0.863281 7.46875 " fill-opacity="1" fill-rule="nonzero"></path></g></g><g clip-path="url(#921794e0e7)"><g clip-path="url(#2bbf537825)"><path fill="#ffffff" d="M -0.863281 7.46875 L 51.25 7.46875 L 51.25 62.226562 L -0.863281 62.226562 Z M -0.863281 7.46875 " fill-opacity="1" fill-rule="nonzero"></path></g></g><g clip-path="url(#5b10b11bc3)"><g clip-path="url(#59c52d2532)"><path fill="#ffffff" d="M -0.863281 7.46875 L 51.25 7.46875 L 51.25 62.226562 L -0.863281 62.226562 Z M -0.863281 7.46875 " fill-opacity="1" fill-rule="nonzero"></path></g></g><g clip-path="url(#4c334705aa)"><g clip-path="url(#4d5009e629)"><path fill="#ffffff" d="M -0.863281 7.46875 L 51.25 7.46875 L 51.25 62.226562 L -0.863281 62.226562 Z M -0.863281 7.46875 " fill-opacity="1" fill-rule="nonzero"></path></g></g><g clip-path="url(#d37b0c3ae2)"><g clip-path="url(#2144573215)"><path fill="#ffffff" d="M -0.863281 7.46875 L 51.25 7.46875 L 51.25 62.226562 L -0.863281 62.226562 Z M -0.863281 7.46875 " fill-opacity="1" fill-rule="nonzero"></path></g></g><g clip-path="url(#bfbf2caf71)"><g clip-path="url(#e5514c9367)"><path fill="#ffffff" d="M -0.863281 7.46875 L 51.25 7.46875 L 51.25 62.226562 L -0.863281 62.226562 Z M -0.863281 7.46875 " fill-opacity="1" fill-rule="nonzero"></path></g></g><g clip-path="url(#a65df18c93)"><g clip-path="url(#436bee7e68)"><path fill="#ffffff" d="M -0.863281 7.46875 L 51.25 7.46875 L 51.25 62.226562 L -0.863281 62.226562 Z M -0.863281 7.46875 " fill-opacity="1" fill-rule="nonzero"></path></g></g><g clip-path="url(#8772b43433)"><g clip-path="url(#b6d580691c)"><path fill="#ffffff" d="M -0.863281 7.46875 L 51.25 7.46875 L 51.25 62.226562 L -0.863281 62.226562 Z M -0.863281 7.46875 " fill-opacity="1" fill-rule="nonzero"></path></g></g><g clip-path="url(#dd6bcb38d4)"><g clip-path="url(#b6406d4ed4)"><path fill="#ffffff" d="M 63.671875 17.367188 L 90.148438 17.367188 L 90.148438 41.660156 L 63.671875 41.660156 Z M 63.671875 17.367188 " fill-opacity="1" fill-rule="nonzero"></path></g></g><g clip-path="url(#1b0e493168)"><g clip-path="url(#5b95fdb602)"><path fill="#ffffff" d="M 93.070312 17.367188 L 109.582031 17.367188 L 109.582031 41.679688 L 93.070312 41.679688 Z M 93.070312 17.367188 " fill-opacity="1" fill-rule="nonzero"></path></g></g><g clip-path="url(#d39b3462b9)"><g clip-path="url(#35662f66ca)"><path fill="#ffffff" d="M 112.332031 17.367188 L 132.199219 17.367188 L 132.199219 41.65625 L 112.332031 41.65625 Z M 112.332031 17.367188 " fill-opacity="1" fill-rule="nonzero"></path></g></g><g clip-path="url(#ff5cfae374)"><g clip-path="url(#3be3140e8d)"><path fill="#ffffff" d="M 141.78125 16.0625 L 261.304688 16.0625 L 261.304688 43.730469 L 141.78125 43.730469 Z M 141.78125 16.0625 " fill-opacity="1" fill-rule="nonzero"></path></g></g><g clip-path="url(#9d8c47fc5e)"><g clip-path="url(#90e916edcb)"><path fill="#ffffff" d="M 141.78125 16.0625 L 261.304688 16.0625 L 261.304688 43.730469 L 141.78125 43.730469 Z M 141.78125 16.0625 " fill-opacity="1" fill-rule="nonzero"></path></g></g><g clip-path="url(#b37ec975f7)"><g clip-path="url(#9116421302)"><path fill="#ffffff" d="M 141.78125 16.0625 L 261.304688 16.0625 L 261.304688 43.730469 L 141.78125 43.730469 Z M 141.78125 16.0625 " fill-opacity="1" fill-rule="nonzero"></path></g></g><g clip-path="url(#566ea28f58)"><g clip-path="url(#6c4a3d5f48)"><path fill="#ffffff" d="M 141.78125 16.0625 L 261.304688 16.0625 L 261.304688 43.730469 L 141.78125 43.730469 Z M 141.78125 16.0625 " fill-opacity="1" fill-rule="nonzero"></path></g></g><g clip-path="url(#928f0eb144)"><g clip-path="url(#8c8d6bc886)"><path fill="#ffffff" d="M 141.78125 16.0625 L 261.304688 16.0625 L 261.304688 43.730469 L 141.78125 43.730469 Z M 141.78125 16.0625 " fill-opacity="1" fill-rule="nonzero"></path></g></g><g clip-path="url(#d0b5463eb7)"><g clip-path="url(#5bc5a91618)"><path fill="#ffffff" d="M 141.78125 16.0625 L 261.304688 16.0625 L 261.304688 43.730469 L 141.78125 43.730469 Z M 141.78125 16.0625 " fill-opacity="1" fill-rule="nonzero"></path></g></g><g clip-path="url(#def07c0f32)"><g clip-path="url(#b666668b68)"><path fill="#ffffff" d="M 141.78125 16.0625 L 261.304688 16.0625 L 261.304688 43.730469 L 141.78125 43.730469 Z M 141.78125 16.0625 " fill-opacity="1" fill-rule="nonzero"></path></g></g><g clip-path="url(#9bdf9467f5)"><g clip-path="url(#8a742d87aa)"><path fill="#ffffff" d="M 141.78125 16.0625 L 261.304688 16.0625 L 261.304688 43.730469 L 141.78125 43.730469 Z M 141.78125 16.0625 " fill-opacity="1" fill-rule="nonzero"></path></g></g><g clip-path="url(#20c643fd70)"><g clip-path="url(#a3f83e8ca8)"><path fill="#ffffff" d="M 141.78125 16.0625 L 261.304688 16.0625 L 261.304688 43.730469 L 141.78125 43.730469 Z M 141.78125 16.0625 " fill-opacity="1" fill-rule="nonzero"></path></g></g><g fill="#ffffff" fill-opacity="1"><g transform="translate(161.199718, 57.670581)"><g><path d="M 0.34375 0 L 0.34375 -0.421875 C 0.34375 -0.523438 0.390625 -0.585938 0.484375 -0.609375 L 1.0625 -0.71875 L 1.0625 -6.421875 C 0.738281 -6.484375 0.546875 -6.519531 0.484375 -6.53125 C 0.390625 -6.550781 0.34375 -6.617188 0.34375 -6.734375 L 0.34375 -7.140625 L 5.46875 -7.140625 L 5.46875 -5.421875 L 5 -5.421875 C 4.875 -5.421875 4.800781 -5.476562 4.78125 -5.59375 C 4.78125 -5.601562 4.773438 -5.632812 4.765625 -5.6875 C 4.765625 -5.75 4.757812 -5.84375 4.75 -5.96875 C 4.738281 -6.09375 4.726562 -6.222656 4.71875 -6.359375 L 2.03125 -6.359375 L 2.03125 -3.984375 L 4.671875 -3.984375 L 4.671875 -3.234375 L 2.03125 -3.234375 L 2.03125 -0.78125 L 4.71875 -0.78125 C 4.75 -1.21875 4.765625 -1.457031 4.765625 -1.5 C 4.785156 -1.601562 4.863281 -1.65625 5 -1.65625 L 5.46875 -1.65625 L 5.46875 0 Z M 0.34375 0 "></path></g></g></g><g fill="#ffffff" fill-opacity="1"><g transform="translate(167.055412, 57.670581)"><g><path d="M 0.34375 0 L 0.34375 -0.421875 C 0.34375 -0.523438 0.390625 -0.585938 0.484375 -0.609375 L 1.0625 -0.71875 L 1.0625 -4.328125 C 0.726562 -4.390625 0.535156 -4.425781 0.484375 -4.4375 C 0.390625 -4.457031 0.34375 -4.519531 0.34375 -4.625 L 0.34375 -5.046875 L 1.578125 -5.046875 C 1.703125 -5.046875 1.78125 -4.988281 1.8125 -4.875 L 1.890625 -4.328125 C 2.390625 -4.867188 2.953125 -5.140625 3.578125 -5.140625 C 4.117188 -5.140625 4.535156 -4.960938 4.828125 -4.609375 C 5.117188 -4.253906 5.265625 -3.796875 5.265625 -3.234375 L 5.265625 -0.734375 C 5.554688 -0.679688 5.742188 -0.644531 5.828125 -0.625 C 5.929688 -0.59375 5.984375 -0.523438 5.984375 -0.421875 L 5.984375 0 L 4.375 0 L 4.375 -3.21875 C 4.375 -4.03125 4.019531 -4.4375 3.3125 -4.4375 C 2.8125 -4.4375 2.351562 -4.195312 1.9375 -3.71875 L 1.9375 -0.734375 C 1.945312 -0.734375 2.140625 -0.691406 2.515625 -0.609375 C 2.617188 -0.585938 2.671875 -0.523438 2.671875 -0.421875 L 2.671875 0 Z M 0.34375 0 "></path></g></g></g><g fill="#ffffff" fill-opacity="1"><g transform="translate(173.291093, 57.670581)"><g><path d="M 0.09375 0.484375 C 0.09375 0.234375 0.171875 0.0195312 0.328125 -0.15625 C 0.492188 -0.34375 0.71875 -0.484375 1 -0.578125 C 0.851562 -0.640625 0.738281 -0.726562 0.65625 -0.84375 C 0.570312 -0.96875 0.53125 -1.117188 0.53125 -1.296875 C 0.53125 -1.335938 0.546875 -1.410156 0.578125 -1.515625 C 0.585938 -1.597656 0.625 -1.675781 0.6875 -1.75 C 0.75 -1.832031 0.816406 -1.910156 0.890625 -1.984375 C 0.910156 -1.992188 1.007812 -2.050781 1.1875 -2.15625 C 0.925781 -2.300781 0.726562 -2.488281 0.59375 -2.71875 C 0.445312 -2.945312 0.375 -3.21875 0.375 -3.53125 C 0.375 -3.789062 0.421875 -4.007812 0.515625 -4.1875 C 0.609375 -4.394531 0.742188 -4.566406 0.921875 -4.703125 C 1.085938 -4.835938 1.289062 -4.945312 1.53125 -5.03125 C 1.757812 -5.101562 2.019531 -5.140625 2.3125 -5.140625 L 2.28125 -5.125 C 2.5 -5.125 2.703125 -5.097656 2.890625 -5.046875 C 3.066406 -5.003906 3.238281 -4.929688 3.40625 -4.828125 L 4.796875 -4.828125 L 4.796875 -4.5 C 4.796875 -4.394531 4.722656 -4.328125 4.578125 -4.296875 L 4.015625 -4.21875 C 4.117188 -4.019531 4.171875 -3.78125 4.171875 -3.5 C 4.171875 -3.238281 4.125 -3.015625 4.03125 -2.828125 C 3.925781 -2.609375 3.796875 -2.4375 3.640625 -2.3125 C 3.460938 -2.164062 3.265625 -2.054688 3.046875 -1.984375 C 2.828125 -1.910156 2.570312 -1.875 2.28125 -1.875 C 2.050781 -1.875 1.832031 -1.898438 1.625 -1.953125 C 1.53125 -1.898438 1.445312 -1.828125 1.375 -1.734375 C 1.320312 -1.660156 1.296875 -1.585938 1.296875 -1.515625 C 1.296875 -1.390625 1.34375 -1.300781 1.4375 -1.25 C 1.550781 -1.175781 1.679688 -1.128906 1.828125 -1.109375 C 2.046875 -1.085938 2.226562 -1.078125 2.375 -1.078125 C 2.507812 -1.078125 2.71875 -1.0625 3 -1.03125 C 3.34375 -1 3.546875 -0.976562 3.609375 -0.96875 C 3.804688 -0.925781 3.988281 -0.867188 4.15625 -0.796875 C 4.3125 -0.722656 4.441406 -0.601562 4.546875 -0.4375 C 4.640625 -0.300781 4.6875 -0.113281 4.6875 0.125 C 4.6875 0.351562 4.632812 0.566406 4.53125 0.765625 C 4.425781 0.941406 4.265625 1.117188 4.046875 1.296875 C 3.859375 1.453125 3.613281 1.578125 3.3125 1.671875 C 3.03125 1.765625 2.695312 1.8125 2.3125 1.8125 C 1.925781 1.8125 1.597656 1.773438 1.328125 1.703125 C 1.046875 1.628906 0.816406 1.53125 0.640625 1.40625 C 0.460938 1.28125 0.328125 1.140625 0.234375 0.984375 C 0.140625 0.804688 0.09375 0.640625 0.09375 0.484375 Z M 0.890625 0.40625 C 0.890625 0.507812 0.921875 0.613281 0.984375 0.71875 C 1.046875 0.820312 1.132812 0.90625 1.25 0.96875 C 1.382812 1.039062 1.535156 1.097656 1.703125 1.140625 C 1.890625 1.179688 2.097656 1.203125 2.328125 1.203125 C 2.523438 1.203125 2.738281 1.175781 2.96875 1.125 C 3.144531 1.09375 3.304688 1.03125 3.453125 0.9375 C 3.585938 0.863281 3.6875 0.769531 3.75 0.65625 C 3.820312 0.53125 3.859375 0.410156 3.859375 0.296875 L 3.875 0.296875 C 3.875 0.171875 3.835938 0.0703125 3.765625 0 C 3.703125 -0.0820312 3.609375 -0.144531 3.484375 -0.1875 C 3.359375 -0.226562 3.222656 -0.253906 3.078125 -0.265625 C 2.816406 -0.296875 2.648438 -0.316406 2.578125 -0.328125 C 2.515625 -0.328125 2.425781 -0.328125 2.3125 -0.328125 C 2.195312 -0.335938 2.109375 -0.34375 2.046875 -0.34375 C 2.015625 -0.34375 1.84375 -0.363281 1.53125 -0.40625 C 1.34375 -0.3125 1.1875 -0.195312 1.0625 -0.0625 C 0.945312 0.0625 0.890625 0.21875 0.890625 0.40625 Z M 1.203125 -3.46875 C 1.203125 -3.320312 1.226562 -3.1875 1.28125 -3.0625 C 1.332031 -2.914062 1.398438 -2.804688 1.484375 -2.734375 C 1.585938 -2.640625 1.707031 -2.570312 1.84375 -2.53125 C 1.96875 -2.476562 2.117188 -2.453125 2.296875 -2.453125 L 2.296875 -2.4375 C 2.460938 -2.4375 2.625 -2.460938 2.78125 -2.515625 C 2.90625 -2.554688 3.019531 -2.625 3.125 -2.71875 C 3.21875 -2.8125 3.285156 -2.925781 3.328125 -3.0625 C 3.378906 -3.195312 3.40625 -3.332031 3.40625 -3.46875 C 3.40625 -3.769531 3.304688 -4.007812 3.109375 -4.1875 C 2.921875 -4.375 2.648438 -4.46875 2.296875 -4.46875 C 1.941406 -4.46875 1.671875 -4.378906 1.484375 -4.203125 C 1.296875 -4.023438 1.203125 -3.78125 1.203125 -3.46875 Z M 1.203125 -3.46875 "></path></g></g></g><g fill="#ffffff" fill-opacity="1"><g transform="translate(178.34784, 57.670581)"><g><path d="M 0.3125 0 L 0.3125 -0.421875 C 0.3125 -0.472656 0.320312 -0.515625 0.34375 -0.546875 C 0.375 -0.585938 0.410156 -0.613281 0.453125 -0.625 L 1.03125 -0.734375 L 1.03125 -4.328125 C 0.707031 -4.390625 0.515625 -4.425781 0.453125 -4.4375 C 0.410156 -4.445312 0.375 -4.46875 0.34375 -4.5 C 0.320312 -4.539062 0.3125 -4.582031 0.3125 -4.625 L 0.3125 -5.046875 L 1.921875 -5.046875 L 1.921875 -0.734375 C 2.242188 -0.671875 2.429688 -0.632812 2.484375 -0.625 C 2.523438 -0.613281 2.5625 -0.585938 2.59375 -0.546875 C 2.625 -0.515625 2.640625 -0.472656 2.640625 -0.421875 L 2.640625 0 Z M 0.84375 -6.640625 C 0.84375 -6.742188 0.859375 -6.828125 0.890625 -6.890625 C 0.941406 -6.984375 0.988281 -7.050781 1.03125 -7.09375 C 1.09375 -7.15625 1.160156 -7.203125 1.234375 -7.234375 C 1.296875 -7.265625 1.375 -7.28125 1.46875 -7.28125 C 1.570312 -7.28125 1.65625 -7.265625 1.71875 -7.234375 C 1.789062 -7.203125 1.859375 -7.15625 1.921875 -7.09375 C 1.960938 -7.050781 2.007812 -6.984375 2.0625 -6.890625 C 2.09375 -6.804688 2.109375 -6.722656 2.109375 -6.640625 C 2.109375 -6.554688 2.085938 -6.472656 2.046875 -6.390625 C 2.015625 -6.316406 1.96875 -6.253906 1.90625 -6.203125 C 1.851562 -6.148438 1.789062 -6.101562 1.71875 -6.0625 C 1.65625 -6.03125 1.570312 -6.015625 1.46875 -6.015625 C 1.375 -6.015625 1.296875 -6.03125 1.234375 -6.0625 C 1.160156 -6.101562 1.09375 -6.148438 1.03125 -6.203125 C 0.976562 -6.253906 0.929688 -6.320312 0.890625 -6.40625 C 0.859375 -6.46875 0.84375 -6.546875 0.84375 -6.640625 Z M 0.84375 -6.640625 "></path></g></g></g><g fill="#ffffff" fill-opacity="1"><g transform="translate(181.226977, 57.670581)"><g><path d="M 0.34375 0 L 0.34375 -0.421875 C 0.34375 -0.523438 0.390625 -0.585938 0.484375 -0.609375 L 1.0625 -0.71875 L 1.0625 -4.328125 C 0.726562 -4.390625 0.535156 -4.425781 0.484375 -4.4375 C 0.390625 -4.457031 0.34375 -4.519531 0.34375 -4.625 L 0.34375 -5.046875 L 1.578125 -5.046875 C 1.703125 -5.046875 1.78125 -4.988281 1.8125 -4.875 L 1.890625 -4.328125 C 2.390625 -4.867188 2.953125 -5.140625 3.578125 -5.140625 C 4.117188 -5.140625 4.535156 -4.960938 4.828125 -4.609375 C 5.117188 -4.253906 5.265625 -3.796875 5.265625 -3.234375 L 5.265625 -0.734375 C 5.554688 -0.679688 5.742188 -0.644531 5.828125 -0.625 C 5.929688 -0.59375 5.984375 -0.523438 5.984375 -0.421875 L 5.984375 0 L 4.375 0 L 4.375 -3.21875 C 4.375 -4.03125 4.019531 -4.4375 3.3125 -4.4375 C 2.8125 -4.4375 2.351562 -4.195312 1.9375 -3.71875 L 1.9375 -0.734375 C 1.945312 -0.734375 2.140625 -0.691406 2.515625 -0.609375 C 2.617188 -0.585938 2.671875 -0.523438 2.671875 -0.421875 L 2.671875 0 Z M 0.34375 0 "></path></g></g></g><g fill="#ffffff" fill-opacity="1"><g transform="translate(187.462658, 57.670581)"><g><path d="M 0.203125 -2.640625 C 0.203125 -2.984375 0.257812 -3.304688 0.375 -3.609375 C 0.5 -3.929688 0.65625 -4.195312 0.84375 -4.40625 C 1.039062 -4.632812 1.289062 -4.8125 1.59375 -4.9375 C 1.875 -5.070312 2.203125 -5.140625 2.578125 -5.140625 L 2.546875 -5.140625 C 2.847656 -5.140625 3.128906 -5.085938 3.390625 -4.984375 C 3.648438 -4.890625 3.867188 -4.742188 4.046875 -4.546875 C 4.253906 -4.335938 4.40625 -4.101562 4.5 -3.84375 C 4.601562 -3.539062 4.65625 -3.222656 4.65625 -2.890625 C 4.65625 -2.734375 4.640625 -2.640625 4.609375 -2.609375 C 4.578125 -2.554688 4.519531 -2.53125 4.4375 -2.53125 L 1.078125 -2.53125 C 1.078125 -2.226562 1.117188 -1.953125 1.203125 -1.703125 C 1.265625 -1.492188 1.375 -1.296875 1.53125 -1.109375 C 1.675781 -0.953125 1.84375 -0.835938 2.03125 -0.765625 C 2.238281 -0.679688 2.453125 -0.640625 2.671875 -0.640625 C 2.910156 -0.640625 3.101562 -0.660156 3.25 -0.703125 C 3.363281 -0.742188 3.503906 -0.800781 3.671875 -0.875 C 3.785156 -0.925781 3.882812 -0.976562 3.96875 -1.03125 C 4.050781 -1.082031 4.117188 -1.109375 4.171875 -1.109375 C 4.242188 -1.109375 4.300781 -1.082031 4.34375 -1.03125 L 4.59375 -0.703125 C 4.5 -0.578125 4.363281 -0.460938 4.1875 -0.359375 C 3.976562 -0.234375 3.816406 -0.148438 3.703125 -0.109375 C 3.484375 -0.0351562 3.300781 0.0078125 3.15625 0.03125 C 2.957031 0.0625 2.78125 0.078125 2.625 0.078125 C 2.257812 0.078125 1.929688 0.0195312 1.640625 -0.09375 C 1.359375 -0.207031 1.101562 -0.382812 0.875 -0.625 C 0.664062 -0.84375 0.5 -1.128906 0.375 -1.484375 C 0.257812 -1.816406 0.203125 -2.203125 0.203125 -2.640625 Z M 1.109375 -3.078125 L 3.859375 -3.078125 C 3.859375 -3.265625 3.828125 -3.445312 3.765625 -3.625 C 3.703125 -3.832031 3.625 -3.984375 3.53125 -4.078125 C 3.414062 -4.203125 3.28125 -4.296875 3.125 -4.359375 C 2.96875 -4.429688 2.785156 -4.46875 2.578125 -4.46875 L 2.578125 -4.484375 C 2.148438 -4.484375 1.816406 -4.359375 1.578125 -4.109375 C 1.328125 -3.847656 1.171875 -3.503906 1.109375 -3.078125 Z M 1.109375 -3.078125 "></path></g></g></g><g fill="#ffffff" fill-opacity="1"><g transform="translate(192.368391, 57.670581)"><g><path d="M 0.203125 -2.640625 C 0.203125 -2.984375 0.257812 -3.304688 0.375 -3.609375 C 0.5 -3.929688 0.65625 -4.195312 0.84375 -4.40625 C 1.039062 -4.632812 1.289062 -4.8125 1.59375 -4.9375 C 1.875 -5.070312 2.203125 -5.140625 2.578125 -5.140625 L 2.546875 -5.140625 C 2.847656 -5.140625 3.128906 -5.085938 3.390625 -4.984375 C 3.648438 -4.890625 3.867188 -4.742188 4.046875 -4.546875 C 4.253906 -4.335938 4.40625 -4.101562 4.5 -3.84375 C 4.601562 -3.539062 4.65625 -3.222656 4.65625 -2.890625 C 4.65625 -2.734375 4.640625 -2.640625 4.609375 -2.609375 C 4.578125 -2.554688 4.519531 -2.53125 4.4375 -2.53125 L 1.078125 -2.53125 C 1.078125 -2.226562 1.117188 -1.953125 1.203125 -1.703125 C 1.265625 -1.492188 1.375 -1.296875 1.53125 -1.109375 C 1.675781 -0.953125 1.84375 -0.835938 2.03125 -0.765625 C 2.238281 -0.679688 2.453125 -0.640625 2.671875 -0.640625 C 2.910156 -0.640625 3.101562 -0.660156 3.25 -0.703125 C 3.363281 -0.742188 3.503906 -0.800781 3.671875 -0.875 C 3.785156 -0.925781 3.882812 -0.976562 3.96875 -1.03125 C 4.050781 -1.082031 4.117188 -1.109375 4.171875 -1.109375 C 4.242188 -1.109375 4.300781 -1.082031 4.34375 -1.03125 L 4.59375 -0.703125 C 4.5 -0.578125 4.363281 -0.460938 4.1875 -0.359375 C 3.976562 -0.234375 3.816406 -0.148438 3.703125 -0.109375 C 3.484375 -0.0351562 3.300781 0.0078125 3.15625 0.03125 C 2.957031 0.0625 2.78125 0.078125 2.625 0.078125 C 2.257812 0.078125 1.929688 0.0195312 1.640625 -0.09375 C 1.359375 -0.207031 1.101562 -0.382812 0.875 -0.625 C 0.664062 -0.84375 0.5 -1.128906 0.375 -1.484375 C 0.257812 -1.816406 0.203125 -2.203125 0.203125 -2.640625 Z M 1.109375 -3.078125 L 3.859375 -3.078125 C 3.859375 -3.265625 3.828125 -3.445312 3.765625 -3.625 C 3.703125 -3.832031 3.625 -3.984375 3.53125 -4.078125 C 3.414062 -4.203125 3.28125 -4.296875 3.125 -4.359375 C 2.96875 -4.429688 2.785156 -4.46875 2.578125 -4.46875 L 2.578125 -4.484375 C 2.148438 -4.484375 1.816406 -4.359375 1.578125 -4.109375 C 1.328125 -3.847656 1.171875 -3.503906 1.109375 -3.078125 Z M 1.109375 -3.078125 "></path></g></g></g><g fill="#ffffff" fill-opacity="1"><g transform="translate(197.274123, 57.670581)"><g><path d="M 0.34375 0 L 0.34375 -0.421875 C 0.34375 -0.523438 0.390625 -0.585938 0.484375 -0.609375 L 1.0625 -0.71875 L 1.0625 -4.328125 C 0.738281 -4.378906 0.546875 -4.414062 0.484375 -4.4375 C 0.390625 -4.457031 0.34375 -4.519531 0.34375 -4.625 L 0.34375 -5.046875 L 1.5625 -5.046875 C 1.65625 -5.046875 1.71875 -5.03125 1.75 -5 C 1.789062 -4.96875 1.820312 -4.90625 1.84375 -4.8125 L 1.890625 -4.015625 L 1.90625 -4.015625 C 2.28125 -4.773438 2.796875 -5.15625 3.453125 -5.15625 C 3.710938 -5.15625 3.941406 -5.09375 4.140625 -4.96875 L 4.015625 -4.3125 C 3.992188 -4.21875 3.953125 -4.171875 3.890625 -4.171875 C 3.835938 -4.171875 3.757812 -4.1875 3.65625 -4.21875 C 3.53125 -4.257812 3.394531 -4.28125 3.25 -4.28125 C 2.664062 -4.28125 2.226562 -3.925781 1.9375 -3.21875 L 1.9375 -0.71875 C 1.96875 -0.707031 2.003906 -0.695312 2.046875 -0.6875 C 2.097656 -0.6875 2.164062 -0.675781 2.25 -0.65625 C 2.34375 -0.644531 2.429688 -0.628906 2.515625 -0.609375 C 2.617188 -0.585938 2.671875 -0.523438 2.671875 -0.421875 L 2.671875 0 Z M 0.34375 0 "></path></g></g></g><g fill="#ffffff" fill-opacity="1"><g transform="translate(201.58064, 57.670581)"><g><path d="M 0.3125 0 L 0.3125 -0.421875 C 0.3125 -0.472656 0.320312 -0.515625 0.34375 -0.546875 C 0.375 -0.585938 0.410156 -0.613281 0.453125 -0.625 L 1.03125 -0.734375 L 1.03125 -4.328125 C 0.707031 -4.390625 0.515625 -4.425781 0.453125 -4.4375 C 0.410156 -4.445312 0.375 -4.46875 0.34375 -4.5 C 0.320312 -4.539062 0.3125 -4.582031 0.3125 -4.625 L 0.3125 -5.046875 L 1.921875 -5.046875 L 1.921875 -0.734375 C 2.242188 -0.671875 2.429688 -0.632812 2.484375 -0.625 C 2.523438 -0.613281 2.5625 -0.585938 2.59375 -0.546875 C 2.625 -0.515625 2.640625 -0.472656 2.640625 -0.421875 L 2.640625 0 Z M 0.84375 -6.640625 C 0.84375 -6.742188 0.859375 -6.828125 0.890625 -6.890625 C 0.941406 -6.984375 0.988281 -7.050781 1.03125 -7.09375 C 1.09375 -7.15625 1.160156 -7.203125 1.234375 -7.234375 C 1.296875 -7.265625 1.375 -7.28125 1.46875 -7.28125 C 1.570312 -7.28125 1.65625 -7.265625 1.71875 -7.234375 C 1.789062 -7.203125 1.859375 -7.15625 1.921875 -7.09375 C 1.960938 -7.050781 2.007812 -6.984375 2.0625 -6.890625 C 2.09375 -6.804688 2.109375 -6.722656 2.109375 -6.640625 C 2.109375 -6.554688 2.085938 -6.472656 2.046875 -6.390625 C 2.015625 -6.316406 1.96875 -6.253906 1.90625 -6.203125 C 1.851562 -6.148438 1.789062 -6.101562 1.71875 -6.0625 C 1.65625 -6.03125 1.570312 -6.015625 1.46875 -6.015625 C 1.375 -6.015625 1.296875 -6.03125 1.234375 -6.0625 C 1.160156 -6.101562 1.09375 -6.148438 1.03125 -6.203125 C 0.976562 -6.253906 0.929688 -6.320312 0.890625 -6.40625 C 0.859375 -6.46875 0.84375 -6.546875 0.84375 -6.640625 Z M 0.84375 -6.640625 "></path></g></g></g><g fill="#ffffff" fill-opacity="1"><g transform="translate(204.459777, 57.670581)"><g><path d="M 0.34375 0 L 0.34375 -0.421875 C 0.34375 -0.523438 0.390625 -0.585938 0.484375 -0.609375 L 1.0625 -0.71875 L 1.0625 -4.328125 C 0.726562 -4.390625 0.535156 -4.425781 0.484375 -4.4375 C 0.390625 -4.457031 0.34375 -4.519531 0.34375 -4.625 L 0.34375 -5.046875 L 1.578125 -5.046875 C 1.703125 -5.046875 1.78125 -4.988281 1.8125 -4.875 L 1.890625 -4.328125 C 2.390625 -4.867188 2.953125 -5.140625 3.578125 -5.140625 C 4.117188 -5.140625 4.535156 -4.960938 4.828125 -4.609375 C 5.117188 -4.253906 5.265625 -3.796875 5.265625 -3.234375 L 5.265625 -0.734375 C 5.554688 -0.679688 5.742188 -0.644531 5.828125 -0.625 C 5.929688 -0.59375 5.984375 -0.523438 5.984375 -0.421875 L 5.984375 0 L 4.375 0 L 4.375 -3.21875 C 4.375 -4.03125 4.019531 -4.4375 3.3125 -4.4375 C 2.8125 -4.4375 2.351562 -4.195312 1.9375 -3.71875 L 1.9375 -0.734375 C 1.945312 -0.734375 2.140625 -0.691406 2.515625 -0.609375 C 2.617188 -0.585938 2.671875 -0.523438 2.671875 -0.421875 L 2.671875 0 Z M 0.34375 0 "></path></g></g></g><g fill="#ffffff" fill-opacity="1"><g transform="translate(210.695458, 57.670581)"><g><path d="M 0.09375 0.484375 C 0.09375 0.234375 0.171875 0.0195312 0.328125 -0.15625 C 0.492188 -0.34375 0.71875 -0.484375 1 -0.578125 C 0.851562 -0.640625 0.738281 -0.726562 0.65625 -0.84375 C 0.570312 -0.96875 0.53125 -1.117188 0.53125 -1.296875 C 0.53125 -1.335938 0.546875 -1.410156 0.578125 -1.515625 C 0.585938 -1.597656 0.625 -1.675781 0.6875 -1.75 C 0.75 -1.832031 0.816406 -1.910156 0.890625 -1.984375 C 0.910156 -1.992188 1.007812 -2.050781 1.1875 -2.15625 C 0.925781 -2.300781 0.726562 -2.488281 0.59375 -2.71875 C 0.445312 -2.945312 0.375 -3.21875 0.375 -3.53125 C 0.375 -3.789062 0.421875 -4.007812 0.515625 -4.1875 C 0.609375 -4.394531 0.742188 -4.566406 0.921875 -4.703125 C 1.085938 -4.835938 1.289062 -4.945312 1.53125 -5.03125 C 1.757812 -5.101562 2.019531 -5.140625 2.3125 -5.140625 L 2.28125 -5.125 C 2.5 -5.125 2.703125 -5.097656 2.890625 -5.046875 C 3.066406 -5.003906 3.238281 -4.929688 3.40625 -4.828125 L 4.796875 -4.828125 L 4.796875 -4.5 C 4.796875 -4.394531 4.722656 -4.328125 4.578125 -4.296875 L 4.015625 -4.21875 C 4.117188 -4.019531 4.171875 -3.78125 4.171875 -3.5 C 4.171875 -3.238281 4.125 -3.015625 4.03125 -2.828125 C 3.925781 -2.609375 3.796875 -2.4375 3.640625 -2.3125 C 3.460938 -2.164062 3.265625 -2.054688 3.046875 -1.984375 C 2.828125 -1.910156 2.570312 -1.875 2.28125 -1.875 C 2.050781 -1.875 1.832031 -1.898438 1.625 -1.953125 C 1.53125 -1.898438 1.445312 -1.828125 1.375 -1.734375 C 1.320312 -1.660156 1.296875 -1.585938 1.296875 -1.515625 C 1.296875 -1.390625 1.34375 -1.300781 1.4375 -1.25 C 1.550781 -1.175781 1.679688 -1.128906 1.828125 -1.109375 C 2.046875 -1.085938 2.226562 -1.078125 2.375 -1.078125 C 2.507812 -1.078125 2.71875 -1.0625 3 -1.03125 C 3.34375 -1 3.546875 -0.976562 3.609375 -0.96875 C 3.804688 -0.925781 3.988281 -0.867188 4.15625 -0.796875 C 4.3125 -0.722656 4.441406 -0.601562 4.546875 -0.4375 C 4.640625 -0.300781 4.6875 -0.113281 4.6875 0.125 C 4.6875 0.351562 4.632812 0.566406 4.53125 0.765625 C 4.425781 0.941406 4.265625 1.117188 4.046875 1.296875 C 3.859375 1.453125 3.613281 1.578125 3.3125 1.671875 C 3.03125 1.765625 2.695312 1.8125 2.3125 1.8125 C 1.925781 1.8125 1.597656 1.773438 1.328125 1.703125 C 1.046875 1.628906 0.816406 1.53125 0.640625 1.40625 C 0.460938 1.28125 0.328125 1.140625 0.234375 0.984375 C 0.140625 0.804688 0.09375 0.640625 0.09375 0.484375 Z M 0.890625 0.40625 C 0.890625 0.507812 0.921875 0.613281 0.984375 0.71875 C 1.046875 0.820312 1.132812 0.90625 1.25 0.96875 C 1.382812 1.039062 1.535156 1.097656 1.703125 1.140625 C 1.890625 1.179688 2.097656 1.203125 2.328125 1.203125 C 2.523438 1.203125 2.738281 1.175781 2.96875 1.125 C 3.144531 1.09375 3.304688 1.03125 3.453125 0.9375 C 3.585938 0.863281 3.6875 0.769531 3.75 0.65625 C 3.820312 0.53125 3.859375 0.410156 3.859375 0.296875 L 3.875 0.296875 C 3.875 0.171875 3.835938 0.0703125 3.765625 0 C 3.703125 -0.0820312 3.609375 -0.144531 3.484375 -0.1875 C 3.359375 -0.226562 3.222656 -0.253906 3.078125 -0.265625 C 2.816406 -0.296875 2.648438 -0.316406 2.578125 -0.328125 C 2.515625 -0.328125 2.425781 -0.328125 2.3125 -0.328125 C 2.195312 -0.335938 2.109375 -0.34375 2.046875 -0.34375 C 2.015625 -0.34375 1.84375 -0.363281 1.53125 -0.40625 C 1.34375 -0.3125 1.1875 -0.195312 1.0625 -0.0625 C 0.945312 0.0625 0.890625 0.21875 0.890625 0.40625 Z M 1.203125 -3.46875 C 1.203125 -3.320312 1.226562 -3.1875 1.28125 -3.0625 C 1.332031 -2.914062 1.398438 -2.804688 1.484375 -2.734375 C 1.585938 -2.640625 1.707031 -2.570312 1.84375 -2.53125 C 1.96875 -2.476562 2.117188 -2.453125 2.296875 -2.453125 L 2.296875 -2.4375 C 2.460938 -2.4375 2.625 -2.460938 2.78125 -2.515625 C 2.90625 -2.554688 3.019531 -2.625 3.125 -2.71875 C 3.21875 -2.8125 3.285156 -2.925781 3.328125 -3.0625 C 3.378906 -3.195312 3.40625 -3.332031 3.40625 -3.46875 C 3.40625 -3.769531 3.304688 -4.007812 3.109375 -4.1875 C 2.921875 -4.375 2.648438 -4.46875 2.296875 -4.46875 C 1.941406 -4.46875 1.671875 -4.378906 1.484375 -4.203125 C 1.296875 -4.023438 1.203125 -3.78125 1.203125 -3.46875 Z M 1.203125 -3.46875 "></path></g></g></g><g fill="#ffffff" fill-opacity="1"><g transform="translate(103.220211, 57.670581)"><g><path d="M 0.34375 0 L 0.34375 -0.421875 C 0.34375 -0.523438 0.390625 -0.585938 0.484375 -0.609375 L 1.0625 -0.71875 L 1.0625 -6.421875 C 0.738281 -6.484375 0.546875 -6.519531 0.484375 -6.53125 C 0.390625 -6.550781 0.34375 -6.617188 0.34375 -6.734375 L 0.34375 -7.140625 L 5.640625 -7.140625 L 5.640625 -5.421875 L 5.15625 -5.421875 C 5.039062 -5.421875 4.972656 -5.476562 4.953125 -5.59375 C 4.953125 -5.601562 4.945312 -5.632812 4.9375 -5.6875 C 4.925781 -5.75 4.914062 -5.84375 4.90625 -5.96875 C 4.894531 -6.09375 4.882812 -6.222656 4.875 -6.359375 L 2.03125 -6.359375 L 2.03125 -3.859375 L 4.75 -3.859375 L 4.75 -3.078125 L 2.03125 -3.078125 L 2.03125 -0.71875 C 2.0625 -0.707031 2.097656 -0.695312 2.140625 -0.6875 C 2.191406 -0.6875 2.257812 -0.675781 2.34375 -0.65625 C 2.4375 -0.644531 2.519531 -0.628906 2.59375 -0.609375 C 2.695312 -0.585938 2.75 -0.523438 2.75 -0.421875 L 2.75 0 Z M 0.34375 0 "></path></g></g></g><g fill="#ffffff" fill-opacity="1"><g transform="translate(109.046676, 57.670581)"><g><path d="M 0.328125 0 L 0.328125 -0.421875 C 0.328125 -0.535156 0.378906 -0.601562 0.484375 -0.625 L 1.03125 -0.734375 L 1.03125 -6.625 C 0.726562 -6.6875 0.546875 -6.726562 0.484375 -6.75 C 0.378906 -6.769531 0.328125 -6.828125 0.328125 -6.921875 L 0.328125 -7.359375 L 1.9375 -7.359375 L 1.9375 -0.734375 C 2.21875 -0.679688 2.40625 -0.644531 2.5 -0.625 C 2.601562 -0.59375 2.65625 -0.523438 2.65625 -0.421875 L 2.65625 0 Z M 0.328125 0 "></path></g></g></g><g fill="#ffffff" fill-opacity="1"><g transform="translate(111.935555, 57.670581)"><g><path d="M 0.375 -1.453125 C 0.269531 -1.734375 0.21875 -2.09375 0.21875 -2.53125 C 0.21875 -2.96875 0.269531 -3.328125 0.375 -3.609375 C 0.507812 -3.953125 0.675781 -4.226562 0.875 -4.4375 C 1.082031 -4.65625 1.335938 -4.828125 1.640625 -4.953125 C 1.929688 -5.078125 2.265625 -5.140625 2.640625 -5.140625 C 3.003906 -5.140625 3.332031 -5.078125 3.625 -4.953125 C 3.925781 -4.828125 4.1875 -4.65625 4.40625 -4.4375 C 4.601562 -4.21875 4.757812 -3.941406 4.875 -3.609375 C 4.988281 -3.285156 5.046875 -2.925781 5.046875 -2.53125 C 5.046875 -2.132812 4.988281 -1.773438 4.875 -1.453125 C 4.757812 -1.117188 4.601562 -0.847656 4.40625 -0.640625 C 4.1875 -0.421875 3.925781 -0.25 3.625 -0.125 C 3.332031 0 3.003906 0.0625 2.640625 0.0625 C 2.265625 0.0625 1.929688 0 1.640625 -0.125 C 1.335938 -0.25 1.082031 -0.421875 0.875 -0.640625 C 0.675781 -0.847656 0.507812 -1.117188 0.375 -1.453125 Z M 1.140625 -2.515625 C 1.140625 -2.265625 1.171875 -2 1.234375 -1.71875 C 1.296875 -1.488281 1.390625 -1.285156 1.515625 -1.109375 C 1.628906 -0.960938 1.785156 -0.847656 1.984375 -0.765625 C 2.203125 -0.671875 2.421875 -0.625 2.640625 -0.625 C 3.148438 -0.625 3.519531 -0.785156 3.75 -1.109375 C 4 -1.460938 4.125 -1.929688 4.125 -2.515625 C 4.125 -3.109375 4 -3.582031 3.75 -3.9375 C 3.519531 -4.269531 3.148438 -4.4375 2.640625 -4.4375 C 2.378906 -4.4375 2.160156 -4.394531 1.984375 -4.3125 C 1.804688 -4.238281 1.648438 -4.113281 1.515625 -3.9375 C 1.390625 -3.769531 1.296875 -3.566406 1.234375 -3.328125 C 1.171875 -3.054688 1.140625 -2.785156 1.140625 -2.515625 Z M 1.140625 -2.515625 "></path></g></g></g><g fill="#ffffff" fill-opacity="1"><g transform="translate(117.201788, 57.670581)"><g><path d="M 0.140625 -4.625 L 0.140625 -5.046875 L 1.75 -5.046875 L 1.75 -1.84375 C 1.75 -1.445312 1.835938 -1.144531 2.015625 -0.9375 C 2.191406 -0.726562 2.457031 -0.625 2.8125 -0.625 C 3.3125 -0.625 3.769531 -0.851562 4.1875 -1.3125 L 4.1875 -4.3125 C 4.125 -4.332031 3.929688 -4.375 3.609375 -4.4375 C 3.515625 -4.445312 3.46875 -4.507812 3.46875 -4.625 L 3.46875 -5.046875 L 5.0625 -5.046875 L 5.0625 -0.71875 C 5.382812 -0.65625 5.578125 -0.613281 5.640625 -0.59375 C 5.742188 -0.582031 5.796875 -0.523438 5.796875 -0.421875 L 5.796875 0.015625 L 4.546875 0.015625 C 4.421875 0.015625 4.34375 -0.0507812 4.3125 -0.1875 L 4.234375 -0.71875 C 3.753906 -0.175781 3.191406 0.09375 2.546875 0.09375 C 2.015625 0.09375 1.597656 -0.0820312 1.296875 -0.4375 C 1.003906 -0.800781 0.859375 -1.265625 0.859375 -1.828125 L 0.859375 -4.328125 C 0.546875 -4.378906 0.359375 -4.414062 0.296875 -4.4375 C 0.191406 -4.457031 0.140625 -4.519531 0.140625 -4.625 Z M 0.140625 -4.625 "></path></g></g></g><g fill="#ffffff" fill-opacity="1"><g transform="translate(123.247482, 57.670581)"><g><path d="M 0.34375 0 L 0.34375 -0.421875 C 0.34375 -0.523438 0.390625 -0.585938 0.484375 -0.609375 L 1.0625 -0.71875 L 1.0625 -4.328125 C 0.738281 -4.378906 0.546875 -4.414062 0.484375 -4.4375 C 0.390625 -4.457031 0.34375 -4.519531 0.34375 -4.625 L 0.34375 -5.046875 L 1.5625 -5.046875 C 1.65625 -5.046875 1.71875 -5.03125 1.75 -5 C 1.789062 -4.96875 1.820312 -4.90625 1.84375 -4.8125 L 1.890625 -4.015625 L 1.90625 -4.015625 C 2.28125 -4.773438 2.796875 -5.15625 3.453125 -5.15625 C 3.710938 -5.15625 3.941406 -5.09375 4.140625 -4.96875 L 4.015625 -4.3125 C 3.992188 -4.21875 3.953125 -4.171875 3.890625 -4.171875 C 3.835938 -4.171875 3.757812 -4.1875 3.65625 -4.21875 C 3.53125 -4.257812 3.394531 -4.28125 3.25 -4.28125 C 2.664062 -4.28125 2.226562 -3.925781 1.9375 -3.21875 L 1.9375 -0.71875 C 1.96875 -0.707031 2.003906 -0.695312 2.046875 -0.6875 C 2.097656 -0.6875 2.164062 -0.675781 2.25 -0.65625 C 2.34375 -0.644531 2.429688 -0.628906 2.515625 -0.609375 C 2.617188 -0.585938 2.671875 -0.523438 2.671875 -0.421875 L 2.671875 0 Z M 0.34375 0 "></path></g></g></g><g fill="#ffffff" fill-opacity="1"><g transform="translate(127.553999, 57.670581)"><g><path d="M 0.3125 0 L 0.3125 -0.421875 C 0.3125 -0.472656 0.320312 -0.515625 0.34375 -0.546875 C 0.375 -0.585938 0.410156 -0.613281 0.453125 -0.625 L 1.03125 -0.734375 L 1.03125 -4.328125 C 0.707031 -4.390625 0.515625 -4.425781 0.453125 -4.4375 C 0.410156 -4.445312 0.375 -4.46875 0.34375 -4.5 C 0.320312 -4.539062 0.3125 -4.582031 0.3125 -4.625 L 0.3125 -5.046875 L 1.921875 -5.046875 L 1.921875 -0.734375 C 2.242188 -0.671875 2.429688 -0.632812 2.484375 -0.625 C 2.523438 -0.613281 2.5625 -0.585938 2.59375 -0.546875 C 2.625 -0.515625 2.640625 -0.472656 2.640625 -0.421875 L 2.640625 0 Z M 0.84375 -6.640625 C 0.84375 -6.742188 0.859375 -6.828125 0.890625 -6.890625 C 0.941406 -6.984375 0.988281 -7.050781 1.03125 -7.09375 C 1.09375 -7.15625 1.160156 -7.203125 1.234375 -7.234375 C 1.296875 -7.265625 1.375 -7.28125 1.46875 -7.28125 C 1.570312 -7.28125 1.65625 -7.265625 1.71875 -7.234375 C 1.789062 -7.203125 1.859375 -7.15625 1.921875 -7.09375 C 1.960938 -7.050781 2.007812 -6.984375 2.0625 -6.890625 C 2.09375 -6.804688 2.109375 -6.722656 2.109375 -6.640625 C 2.109375 -6.554688 2.085938 -6.472656 2.046875 -6.390625 C 2.015625 -6.316406 1.96875 -6.253906 1.90625 -6.203125 C 1.851562 -6.148438 1.789062 -6.101562 1.71875 -6.0625 C 1.65625 -6.03125 1.570312 -6.015625 1.46875 -6.015625 C 1.375 -6.015625 1.296875 -6.03125 1.234375 -6.0625 C 1.160156 -6.101562 1.09375 -6.148438 1.03125 -6.203125 C 0.976562 -6.253906 0.929688 -6.320312 0.890625 -6.40625 C 0.859375 -6.46875 0.84375 -6.546875 0.84375 -6.640625 Z M 0.84375 -6.640625 "></path></g></g></g><g fill="#ffffff" fill-opacity="1"><g transform="translate(130.433135, 57.670581)"><g><path d="M 0.421875 -0.203125 L 0.421875 -1.515625 L 0.78125 -1.515625 C 0.851562 -1.515625 0.898438 -1.476562 0.921875 -1.40625 C 0.921875 -1.394531 0.921875 -1.363281 0.921875 -1.3125 C 0.929688 -1.269531 0.941406 -1.191406 0.953125 -1.078125 C 0.960938 -0.972656 0.972656 -0.867188 0.984375 -0.765625 C 1.253906 -0.628906 1.597656 -0.5625 2.015625 -0.5625 C 2.335938 -0.5625 2.597656 -0.644531 2.796875 -0.8125 C 2.972656 -0.96875 3.0625 -1.132812 3.0625 -1.3125 C 3.0625 -1.5 3.019531 -1.640625 2.9375 -1.734375 C 2.832031 -1.847656 2.734375 -1.929688 2.640625 -1.984375 C 2.484375 -2.054688 2.34375 -2.109375 2.21875 -2.140625 C 1.726562 -2.296875 1.414062 -2.398438 1.28125 -2.453125 C 1.132812 -2.515625 0.988281 -2.609375 0.84375 -2.734375 C 0.5625 -2.960938 0.421875 -3.273438 0.421875 -3.671875 C 0.421875 -4.078125 0.578125 -4.414062 0.890625 -4.6875 C 1.234375 -4.988281 1.707031 -5.140625 2.3125 -5.140625 C 2.644531 -5.140625 3.082031 -5.046875 3.625 -4.859375 L 3.625 -3.5625 L 3.234375 -3.5625 C 3.140625 -3.5625 3.082031 -3.609375 3.0625 -3.703125 C 3.0625 -3.710938 3.054688 -3.738281 3.046875 -3.78125 C 3.046875 -3.820312 3.039062 -3.898438 3.03125 -4.015625 C 3.019531 -4.128906 3.007812 -4.242188 3 -4.359375 C 2.675781 -4.429688 2.421875 -4.46875 2.234375 -4.46875 L 2.21875 -4.46875 C 1.945312 -4.46875 1.71875 -4.394531 1.53125 -4.25 C 1.34375 -4.113281 1.25 -3.960938 1.25 -3.796875 C 1.25 -3.617188 1.289062 -3.488281 1.375 -3.40625 C 1.507812 -3.257812 1.703125 -3.144531 1.953125 -3.0625 C 2.003906 -3.050781 2.101562 -3.019531 2.25 -2.96875 C 2.40625 -2.925781 2.515625 -2.894531 2.578125 -2.875 L 3.0625 -2.703125 C 3.175781 -2.648438 3.3125 -2.5625 3.46875 -2.4375 C 3.75 -2.21875 3.890625 -1.925781 3.890625 -1.5625 C 3.890625 -1.070312 3.722656 -0.6875 3.390625 -0.40625 C 3.035156 -0.09375 2.59375 0.0625 2.0625 0.0625 C 1.5 0.0625 0.953125 -0.0234375 0.421875 -0.203125 Z M 0.421875 -0.203125 "></path></g></g></g><g fill="#ffffff" fill-opacity="1"><g transform="translate(134.520435, 57.670581)"><g><path d="M 0.234375 -6.921875 L 0.234375 -7.34375 L 1.953125 -7.34375 L 1.953125 -4.375 C 2.441406 -4.882812 2.984375 -5.140625 3.578125 -5.140625 C 4.117188 -5.140625 4.535156 -4.960938 4.828125 -4.609375 C 5.117188 -4.265625 5.265625 -3.800781 5.265625 -3.21875 L 5.265625 -0.734375 C 5.566406 -0.671875 5.757812 -0.628906 5.84375 -0.609375 C 5.9375 -0.585938 5.984375 -0.523438 5.984375 -0.421875 L 5.984375 0 L 4.375 0 L 4.375 -3.21875 C 4.375 -4.019531 4.019531 -4.421875 3.3125 -4.421875 C 2.832031 -4.421875 2.378906 -4.1875 1.953125 -3.71875 L 1.953125 -0.71875 L 2.078125 -0.703125 C 2.316406 -0.648438 2.460938 -0.617188 2.515625 -0.609375 C 2.617188 -0.585938 2.671875 -0.523438 2.671875 -0.421875 L 2.671875 0 L 0.34375 0 L 0.34375 -0.421875 C 0.34375 -0.523438 0.394531 -0.585938 0.5 -0.609375 L 1.0625 -0.71875 L 1.0625 -6.625 C 0.675781 -6.675781 0.457031 -6.710938 0.40625 -6.734375 C 0.289062 -6.753906 0.234375 -6.816406 0.234375 -6.921875 Z M 0.234375 -6.921875 "></path></g></g></g><g fill="#ffffff" fill-opacity="1"><g transform="translate(140.756116, 57.670581)"><g><path d="M 0.3125 0 L 0.3125 -0.421875 C 0.3125 -0.472656 0.320312 -0.515625 0.34375 -0.546875 C 0.375 -0.585938 0.410156 -0.613281 0.453125 -0.625 L 1.03125 -0.734375 L 1.03125 -4.328125 C 0.707031 -4.390625 0.515625 -4.425781 0.453125 -4.4375 C 0.410156 -4.445312 0.375 -4.46875 0.34375 -4.5 C 0.320312 -4.539062 0.3125 -4.582031 0.3125 -4.625 L 0.3125 -5.046875 L 1.921875 -5.046875 L 1.921875 -0.734375 C 2.242188 -0.671875 2.429688 -0.632812 2.484375 -0.625 C 2.523438 -0.613281 2.5625 -0.585938 2.59375 -0.546875 C 2.625 -0.515625 2.640625 -0.472656 2.640625 -0.421875 L 2.640625 0 Z M 0.84375 -6.640625 C 0.84375 -6.742188 0.859375 -6.828125 0.890625 -6.890625 C 0.941406 -6.984375 0.988281 -7.050781 1.03125 -7.09375 C 1.09375 -7.15625 1.160156 -7.203125 1.234375 -7.234375 C 1.296875 -7.265625 1.375 -7.28125 1.46875 -7.28125 C 1.570312 -7.28125 1.65625 -7.265625 1.71875 -7.234375 C 1.789062 -7.203125 1.859375 -7.15625 1.921875 -7.09375 C 1.960938 -7.050781 2.007812 -6.984375 2.0625 -6.890625 C 2.09375 -6.804688 2.109375 -6.722656 2.109375 -6.640625 C 2.109375 -6.554688 2.085938 -6.472656 2.046875 -6.390625 C 2.015625 -6.316406 1.96875 -6.253906 1.90625 -6.203125 C 1.851562 -6.148438 1.789062 -6.101562 1.71875 -6.0625 C 1.65625 -6.03125 1.570312 -6.015625 1.46875 -6.015625 C 1.375 -6.015625 1.296875 -6.03125 1.234375 -6.0625 C 1.160156 -6.101562 1.09375 -6.148438 1.03125 -6.203125 C 0.976562 -6.253906 0.929688 -6.320312 0.890625 -6.40625 C 0.859375 -6.46875 0.84375 -6.546875 0.84375 -6.640625 Z M 0.84375 -6.640625 "></path></g></g></g><g fill="#ffffff" fill-opacity="1"><g transform="translate(143.635252, 57.670581)"><g><path d="M 0.34375 0 L 0.34375 -0.421875 C 0.34375 -0.523438 0.390625 -0.585938 0.484375 -0.609375 L 1.0625 -0.71875 L 1.0625 -4.328125 C 0.726562 -4.390625 0.535156 -4.425781 0.484375 -4.4375 C 0.390625 -4.457031 0.34375 -4.519531 0.34375 -4.625 L 0.34375 -5.046875 L 1.578125 -5.046875 C 1.703125 -5.046875 1.78125 -4.988281 1.8125 -4.875 L 1.890625 -4.328125 C 2.390625 -4.867188 2.953125 -5.140625 3.578125 -5.140625 C 4.117188 -5.140625 4.535156 -4.960938 4.828125 -4.609375 C 5.117188 -4.253906 5.265625 -3.796875 5.265625 -3.234375 L 5.265625 -0.734375 C 5.554688 -0.679688 5.742188 -0.644531 5.828125 -0.625 C 5.929688 -0.59375 5.984375 -0.523438 5.984375 -0.421875 L 5.984375 0 L 4.375 0 L 4.375 -3.21875 C 4.375 -4.03125 4.019531 -4.4375 3.3125 -4.4375 C 2.8125 -4.4375 2.351562 -4.195312 1.9375 -3.71875 L 1.9375 -0.734375 C 1.945312 -0.734375 2.140625 -0.691406 2.515625 -0.609375 C 2.617188 -0.585938 2.671875 -0.523438 2.671875 -0.421875 L 2.671875 0 Z M 0.34375 0 "></path></g></g></g><g fill="#ffffff" fill-opacity="1"><g transform="translate(149.870933, 57.670581)"><g><path d="M 0.09375 0.484375 C 0.09375 0.234375 0.171875 0.0195312 0.328125 -0.15625 C 0.492188 -0.34375 0.71875 -0.484375 1 -0.578125 C 0.851562 -0.640625 0.738281 -0.726562 0.65625 -0.84375 C 0.570312 -0.96875 0.53125 -1.117188 0.53125 -1.296875 C 0.53125 -1.335938 0.546875 -1.410156 0.578125 -1.515625 C 0.585938 -1.597656 0.625 -1.675781 0.6875 -1.75 C 0.75 -1.832031 0.816406 -1.910156 0.890625 -1.984375 C 0.910156 -1.992188 1.007812 -2.050781 1.1875 -2.15625 C 0.925781 -2.300781 0.726562 -2.488281 0.59375 -2.71875 C 0.445312 -2.945312 0.375 -3.21875 0.375 -3.53125 C 0.375 -3.789062 0.421875 -4.007812 0.515625 -4.1875 C 0.609375 -4.394531 0.742188 -4.566406 0.921875 -4.703125 C 1.085938 -4.835938 1.289062 -4.945312 1.53125 -5.03125 C 1.757812 -5.101562 2.019531 -5.140625 2.3125 -5.140625 L 2.28125 -5.125 C 2.5 -5.125 2.703125 -5.097656 2.890625 -5.046875 C 3.066406 -5.003906 3.238281 -4.929688 3.40625 -4.828125 L 4.796875 -4.828125 L 4.796875 -4.5 C 4.796875 -4.394531 4.722656 -4.328125 4.578125 -4.296875 L 4.015625 -4.21875 C 4.117188 -4.019531 4.171875 -3.78125 4.171875 -3.5 C 4.171875 -3.238281 4.125 -3.015625 4.03125 -2.828125 C 3.925781 -2.609375 3.796875 -2.4375 3.640625 -2.3125 C 3.460938 -2.164062 3.265625 -2.054688 3.046875 -1.984375 C 2.828125 -1.910156 2.570312 -1.875 2.28125 -1.875 C 2.050781 -1.875 1.832031 -1.898438 1.625 -1.953125 C 1.53125 -1.898438 1.445312 -1.828125 1.375 -1.734375 C 1.320312 -1.660156 1.296875 -1.585938 1.296875 -1.515625 C 1.296875 -1.390625 1.34375 -1.300781 1.4375 -1.25 C 1.550781 -1.175781 1.679688 -1.128906 1.828125 -1.109375 C 2.046875 -1.085938 2.226562 -1.078125 2.375 -1.078125 C 2.507812 -1.078125 2.71875 -1.0625 3 -1.03125 C 3.34375 -1 3.546875 -0.976562 3.609375 -0.96875 C 3.804688 -0.925781 3.988281 -0.867188 4.15625 -0.796875 C 4.3125 -0.722656 4.441406 -0.601562 4.546875 -0.4375 C 4.640625 -0.300781 4.6875 -0.113281 4.6875 0.125 C 4.6875 0.351562 4.632812 0.566406 4.53125 0.765625 C 4.425781 0.941406 4.265625 1.117188 4.046875 1.296875 C 3.859375 1.453125 3.613281 1.578125 3.3125 1.671875 C 3.03125 1.765625 2.695312 1.8125 2.3125 1.8125 C 1.925781 1.8125 1.597656 1.773438 1.328125 1.703125 C 1.046875 1.628906 0.816406 1.53125 0.640625 1.40625 C 0.460938 1.28125 0.328125 1.140625 0.234375 0.984375 C 0.140625 0.804688 0.09375 0.640625 0.09375 0.484375 Z M 0.890625 0.40625 C 0.890625 0.507812 0.921875 0.613281 0.984375 0.71875 C 1.046875 0.820312 1.132812 0.90625 1.25 0.96875 C 1.382812 1.039062 1.535156 1.097656 1.703125 1.140625 C 1.890625 1.179688 2.097656 1.203125 2.328125 1.203125 C 2.523438 1.203125 2.738281 1.175781 2.96875 1.125 C 3.144531 1.09375 3.304688 1.03125 3.453125 0.9375 C 3.585938 0.863281 3.6875 0.769531 3.75 0.65625 C 3.820312 0.53125 3.859375 0.410156 3.859375 0.296875 L 3.875 0.296875 C 3.875 0.171875 3.835938 0.0703125 3.765625 0 C 3.703125 -0.0820312 3.609375 -0.144531 3.484375 -0.1875 C 3.359375 -0.226562 3.222656 -0.253906 3.078125 -0.265625 C 2.816406 -0.296875 2.648438 -0.316406 2.578125 -0.328125 C 2.515625 -0.328125 2.425781 -0.328125 2.3125 -0.328125 C 2.195312 -0.335938 2.109375 -0.34375 2.046875 -0.34375 C 2.015625 -0.34375 1.84375 -0.363281 1.53125 -0.40625 C 1.34375 -0.3125 1.1875 -0.195312 1.0625 -0.0625 C 0.945312 0.0625 0.890625 0.21875 0.890625 0.40625 Z M 1.203125 -3.46875 C 1.203125 -3.320312 1.226562 -3.1875 1.28125 -3.0625 C 1.332031 -2.914062 1.398438 -2.804688 1.484375 -2.734375 C 1.585938 -2.640625 1.707031 -2.570312 1.84375 -2.53125 C 1.96875 -2.476562 2.117188 -2.453125 2.296875 -2.453125 L 2.296875 -2.4375 C 2.460938 -2.4375 2.625 -2.460938 2.78125 -2.515625 C 2.90625 -2.554688 3.019531 -2.625 3.125 -2.71875 C 3.21875 -2.8125 3.285156 -2.925781 3.328125 -3.0625 C 3.378906 -3.195312 3.40625 -3.332031 3.40625 -3.46875 C 3.40625 -3.769531 3.304688 -4.007812 3.109375 -4.1875 C 2.921875 -4.375 2.648438 -4.46875 2.296875 -4.46875 C 1.941406 -4.46875 1.671875 -4.378906 1.484375 -4.203125 C 1.296875 -4.023438 1.203125 -3.78125 1.203125 -3.46875 Z M 1.203125 -3.46875 "></path></g></g></g><g fill="#ffffff" fill-opacity="1"><g transform="translate(222.047462, 57.670581)"><g><path d="M 0.34375 0 L 0.34375 -0.421875 C 0.34375 -0.535156 0.390625 -0.601562 0.484375 -0.625 L 1.0625 -0.734375 L 1.0625 -6.4375 C 0.738281 -6.488281 0.535156 -6.523438 0.453125 -6.546875 C 0.378906 -6.566406 0.34375 -6.628906 0.34375 -6.734375 L 0.34375 -7.140625 L 2.75 -7.140625 L 2.75 -6.734375 C 2.75 -6.617188 2.695312 -6.550781 2.59375 -6.53125 L 2.015625 -6.4375 L 2.015625 -0.734375 C 2.316406 -0.671875 2.519531 -0.628906 2.625 -0.609375 C 2.707031 -0.585938 2.75 -0.523438 2.75 -0.421875 L 2.75 0 Z M 0.34375 0 "></path></g></g></g><g fill="#ffffff" fill-opacity="1"><g transform="translate(225.087357, 57.670581)"><g><path d="M 0.34375 0 L 0.34375 -0.421875 C 0.34375 -0.523438 0.390625 -0.585938 0.484375 -0.609375 L 1.0625 -0.71875 L 1.0625 -4.328125 C 0.726562 -4.390625 0.535156 -4.425781 0.484375 -4.4375 C 0.390625 -4.457031 0.34375 -4.519531 0.34375 -4.625 L 0.34375 -5.046875 L 1.578125 -5.046875 C 1.703125 -5.046875 1.78125 -4.988281 1.8125 -4.875 L 1.890625 -4.328125 C 2.390625 -4.867188 2.953125 -5.140625 3.578125 -5.140625 C 4.117188 -5.140625 4.535156 -4.960938 4.828125 -4.609375 C 5.117188 -4.253906 5.265625 -3.796875 5.265625 -3.234375 L 5.265625 -0.734375 C 5.554688 -0.679688 5.742188 -0.644531 5.828125 -0.625 C 5.929688 -0.59375 5.984375 -0.523438 5.984375 -0.421875 L 5.984375 0 L 4.375 0 L 4.375 -3.21875 C 4.375 -4.03125 4.019531 -4.4375 3.3125 -4.4375 C 2.8125 -4.4375 2.351562 -4.195312 1.9375 -3.71875 L 1.9375 -0.734375 C 1.945312 -0.734375 2.140625 -0.691406 2.515625 -0.609375 C 2.617188 -0.585938 2.671875 -0.523438 2.671875 -0.421875 L 2.671875 0 Z M 0.34375 0 "></path></g></g></g><g fill="#ffffff" fill-opacity="1"><g transform="translate(231.323038, 57.670581)"><g><path d="M 0.421875 -0.203125 L 0.421875 -1.515625 L 0.78125 -1.515625 C 0.851562 -1.515625 0.898438 -1.476562 0.921875 -1.40625 C 0.921875 -1.394531 0.921875 -1.363281 0.921875 -1.3125 C 0.929688 -1.269531 0.941406 -1.191406 0.953125 -1.078125 C 0.960938 -0.972656 0.972656 -0.867188 0.984375 -0.765625 C 1.253906 -0.628906 1.597656 -0.5625 2.015625 -0.5625 C 2.335938 -0.5625 2.597656 -0.644531 2.796875 -0.8125 C 2.972656 -0.96875 3.0625 -1.132812 3.0625 -1.3125 C 3.0625 -1.5 3.019531 -1.640625 2.9375 -1.734375 C 2.832031 -1.847656 2.734375 -1.929688 2.640625 -1.984375 C 2.484375 -2.054688 2.34375 -2.109375 2.21875 -2.140625 C 1.726562 -2.296875 1.414062 -2.398438 1.28125 -2.453125 C 1.132812 -2.515625 0.988281 -2.609375 0.84375 -2.734375 C 0.5625 -2.960938 0.421875 -3.273438 0.421875 -3.671875 C 0.421875 -4.078125 0.578125 -4.414062 0.890625 -4.6875 C 1.234375 -4.988281 1.707031 -5.140625 2.3125 -5.140625 C 2.644531 -5.140625 3.082031 -5.046875 3.625 -4.859375 L 3.625 -3.5625 L 3.234375 -3.5625 C 3.140625 -3.5625 3.082031 -3.609375 3.0625 -3.703125 C 3.0625 -3.710938 3.054688 -3.738281 3.046875 -3.78125 C 3.046875 -3.820312 3.039062 -3.898438 3.03125 -4.015625 C 3.019531 -4.128906 3.007812 -4.242188 3 -4.359375 C 2.675781 -4.429688 2.421875 -4.46875 2.234375 -4.46875 L 2.21875 -4.46875 C 1.945312 -4.46875 1.71875 -4.394531 1.53125 -4.25 C 1.34375 -4.113281 1.25 -3.960938 1.25 -3.796875 C 1.25 -3.617188 1.289062 -3.488281 1.375 -3.40625 C 1.507812 -3.257812 1.703125 -3.144531 1.953125 -3.0625 C 2.003906 -3.050781 2.101562 -3.019531 2.25 -2.96875 C 2.40625 -2.925781 2.515625 -2.894531 2.578125 -2.875 L 3.0625 -2.703125 C 3.175781 -2.648438 3.3125 -2.5625 3.46875 -2.4375 C 3.75 -2.21875 3.890625 -1.925781 3.890625 -1.5625 C 3.890625 -1.070312 3.722656 -0.6875 3.390625 -0.40625 C 3.035156 -0.09375 2.59375 0.0625 2.0625 0.0625 C 1.5 0.0625 0.953125 -0.0234375 0.421875 -0.203125 Z M 0.421875 -0.203125 "></path></g></g></g><g fill="#ffffff" fill-opacity="1"><g transform="translate(235.410337, 57.670581)"><g><path d="M 0.125 -4.5 L 0.125 -4.84375 L 0.953125 -4.96875 L 1.15625 -6.53125 C 1.15625 -6.582031 1.175781 -6.625 1.21875 -6.65625 C 1.25 -6.675781 1.296875 -6.6875 1.359375 -6.6875 L 1.8125 -6.6875 L 1.8125 -4.953125 L 3.25 -4.953125 L 3.25 -4.3125 L 1.8125 -4.3125 L 1.8125 -1.265625 C 1.8125 -1.046875 1.859375 -0.890625 1.953125 -0.796875 C 2.054688 -0.691406 2.191406 -0.640625 2.359375 -0.640625 C 2.441406 -0.640625 2.53125 -0.648438 2.625 -0.671875 C 2.664062 -0.691406 2.722656 -0.722656 2.796875 -0.765625 C 2.804688 -0.765625 2.820312 -0.773438 2.84375 -0.796875 C 2.875 -0.816406 2.898438 -0.832031 2.921875 -0.84375 C 2.972656 -0.863281 3.003906 -0.875 3.015625 -0.875 C 3.054688 -0.875 3.097656 -0.847656 3.140625 -0.796875 L 3.390625 -0.375 C 3.210938 -0.21875 3.03125 -0.101562 2.84375 -0.03125 C 2.613281 0.0390625 2.390625 0.078125 2.171875 0.078125 C 1.773438 0.078125 1.46875 -0.0351562 1.25 -0.265625 C 1.03125 -0.472656 0.921875 -0.789062 0.921875 -1.21875 L 0.921875 -4.3125 L 0.328125 -4.3125 C 0.265625 -4.3125 0.21875 -4.328125 0.1875 -4.359375 C 0.144531 -4.378906 0.125 -4.425781 0.125 -4.5 Z M 0.125 -4.5 "></path></g></g></g><g fill="#ffffff" fill-opacity="1"><g transform="translate(239.029961, 57.670581)"><g><path d="M 0.3125 0 L 0.3125 -0.421875 C 0.3125 -0.472656 0.320312 -0.515625 0.34375 -0.546875 C 0.375 -0.585938 0.410156 -0.613281 0.453125 -0.625 L 1.03125 -0.734375 L 1.03125 -4.328125 C 0.707031 -4.390625 0.515625 -4.425781 0.453125 -4.4375 C 0.410156 -4.445312 0.375 -4.46875 0.34375 -4.5 C 0.320312 -4.539062 0.3125 -4.582031 0.3125 -4.625 L 0.3125 -5.046875 L 1.921875 -5.046875 L 1.921875 -0.734375 C 2.242188 -0.671875 2.429688 -0.632812 2.484375 -0.625 C 2.523438 -0.613281 2.5625 -0.585938 2.59375 -0.546875 C 2.625 -0.515625 2.640625 -0.472656 2.640625 -0.421875 L 2.640625 0 Z M 0.84375 -6.640625 C 0.84375 -6.742188 0.859375 -6.828125 0.890625 -6.890625 C 0.941406 -6.984375 0.988281 -7.050781 1.03125 -7.09375 C 1.09375 -7.15625 1.160156 -7.203125 1.234375 -7.234375 C 1.296875 -7.265625 1.375 -7.28125 1.46875 -7.28125 C 1.570312 -7.28125 1.65625 -7.265625 1.71875 -7.234375 C 1.789062 -7.203125 1.859375 -7.15625 1.921875 -7.09375 C 1.960938 -7.050781 2.007812 -6.984375 2.0625 -6.890625 C 2.09375 -6.804688 2.109375 -6.722656 2.109375 -6.640625 C 2.109375 -6.554688 2.085938 -6.472656 2.046875 -6.390625 C 2.015625 -6.316406 1.96875 -6.253906 1.90625 -6.203125 C 1.851562 -6.148438 1.789062 -6.101562 1.71875 -6.0625 C 1.65625 -6.03125 1.570312 -6.015625 1.46875 -6.015625 C 1.375 -6.015625 1.296875 -6.03125 1.234375 -6.0625 C 1.160156 -6.101562 1.09375 -6.148438 1.03125 -6.203125 C 0.976562 -6.253906 0.929688 -6.320312 0.890625 -6.40625 C 0.859375 -6.46875 0.84375 -6.546875 0.84375 -6.640625 Z M 0.84375 -6.640625 "></path></g></g></g><g fill="#ffffff" fill-opacity="1"><g transform="translate(241.909097, 57.670581)"><g><path d="M 0.125 -4.5 L 0.125 -4.84375 L 0.953125 -4.96875 L 1.15625 -6.53125 C 1.15625 -6.582031 1.175781 -6.625 1.21875 -6.65625 C 1.25 -6.675781 1.296875 -6.6875 1.359375 -6.6875 L 1.8125 -6.6875 L 1.8125 -4.953125 L 3.25 -4.953125 L 3.25 -4.3125 L 1.8125 -4.3125 L 1.8125 -1.265625 C 1.8125 -1.046875 1.859375 -0.890625 1.953125 -0.796875 C 2.054688 -0.691406 2.191406 -0.640625 2.359375 -0.640625 C 2.441406 -0.640625 2.53125 -0.648438 2.625 -0.671875 C 2.664062 -0.691406 2.722656 -0.722656 2.796875 -0.765625 C 2.804688 -0.765625 2.820312 -0.773438 2.84375 -0.796875 C 2.875 -0.816406 2.898438 -0.832031 2.921875 -0.84375 C 2.972656 -0.863281 3.003906 -0.875 3.015625 -0.875 C 3.054688 -0.875 3.097656 -0.847656 3.140625 -0.796875 L 3.390625 -0.375 C 3.210938 -0.21875 3.03125 -0.101562 2.84375 -0.03125 C 2.613281 0.0390625 2.390625 0.078125 2.171875 0.078125 C 1.773438 0.078125 1.46875 -0.0351562 1.25 -0.265625 C 1.03125 -0.472656 0.921875 -0.789062 0.921875 -1.21875 L 0.921875 -4.3125 L 0.328125 -4.3125 C 0.265625 -4.3125 0.21875 -4.328125 0.1875 -4.359375 C 0.144531 -4.378906 0.125 -4.425781 0.125 -4.5 Z M 0.125 -4.5 "></path></g></g></g><g fill="#ffffff" fill-opacity="1"><g transform="translate(245.528721, 57.670581)"><g><path d="M 0.140625 -4.625 L 0.140625 -5.046875 L 1.75 -5.046875 L 1.75 -1.84375 C 1.75 -1.445312 1.835938 -1.144531 2.015625 -0.9375 C 2.191406 -0.726562 2.457031 -0.625 2.8125 -0.625 C 3.3125 -0.625 3.769531 -0.851562 4.1875 -1.3125 L 4.1875 -4.3125 C 4.125 -4.332031 3.929688 -4.375 3.609375 -4.4375 C 3.515625 -4.445312 3.46875 -4.507812 3.46875 -4.625 L 3.46875 -5.046875 L 5.0625 -5.046875 L 5.0625 -0.71875 C 5.382812 -0.65625 5.578125 -0.613281 5.640625 -0.59375 C 5.742188 -0.582031 5.796875 -0.523438 5.796875 -0.421875 L 5.796875 0.015625 L 4.546875 0.015625 C 4.421875 0.015625 4.34375 -0.0507812 4.3125 -0.1875 L 4.234375 -0.71875 C 3.753906 -0.175781 3.191406 0.09375 2.546875 0.09375 C 2.015625 0.09375 1.597656 -0.0820312 1.296875 -0.4375 C 1.003906 -0.800781 0.859375 -1.265625 0.859375 -1.828125 L 0.859375 -4.328125 C 0.546875 -4.378906 0.359375 -4.414062 0.296875 -4.4375 C 0.191406 -4.457031 0.140625 -4.519531 0.140625 -4.625 Z M 0.140625 -4.625 "></path></g></g></g><g fill="#ffffff" fill-opacity="1"><g transform="translate(251.574414, 57.670581)"><g><path d="M 0.125 -4.5 L 0.125 -4.84375 L 0.953125 -4.96875 L 1.15625 -6.53125 C 1.15625 -6.582031 1.175781 -6.625 1.21875 -6.65625 C 1.25 -6.675781 1.296875 -6.6875 1.359375 -6.6875 L 1.8125 -6.6875 L 1.8125 -4.953125 L 3.25 -4.953125 L 3.25 -4.3125 L 1.8125 -4.3125 L 1.8125 -1.265625 C 1.8125 -1.046875 1.859375 -0.890625 1.953125 -0.796875 C 2.054688 -0.691406 2.191406 -0.640625 2.359375 -0.640625 C 2.441406 -0.640625 2.53125 -0.648438 2.625 -0.671875 C 2.664062 -0.691406 2.722656 -0.722656 2.796875 -0.765625 C 2.804688 -0.765625 2.820312 -0.773438 2.84375 -0.796875 C 2.875 -0.816406 2.898438 -0.832031 2.921875 -0.84375 C 2.972656 -0.863281 3.003906 -0.875 3.015625 -0.875 C 3.054688 -0.875 3.097656 -0.847656 3.140625 -0.796875 L 3.390625 -0.375 C 3.210938 -0.21875 3.03125 -0.101562 2.84375 -0.03125 C 2.613281 0.0390625 2.390625 0.078125 2.171875 0.078125 C 1.773438 0.078125 1.46875 -0.0351562 1.25 -0.265625 C 1.03125 -0.472656 0.921875 -0.789062 0.921875 -1.21875 L 0.921875 -4.3125 L 0.328125 -4.3125 C 0.265625 -4.3125 0.21875 -4.328125 0.1875 -4.359375 C 0.144531 -4.378906 0.125 -4.425781 0.125 -4.5 Z M 0.125 -4.5 "></path></g></g></g><g fill="#ffffff" fill-opacity="1"><g transform="translate(255.194038, 57.670581)"><g><path d="M 0.203125 -2.640625 C 0.203125 -2.984375 0.257812 -3.304688 0.375 -3.609375 C 0.5 -3.929688 0.65625 -4.195312 0.84375 -4.40625 C 1.039062 -4.632812 1.289062 -4.8125 1.59375 -4.9375 C 1.875 -5.070312 2.203125 -5.140625 2.578125 -5.140625 L 2.546875 -5.140625 C 2.847656 -5.140625 3.128906 -5.085938 3.390625 -4.984375 C 3.648438 -4.890625 3.867188 -4.742188 4.046875 -4.546875 C 4.253906 -4.335938 4.40625 -4.101562 4.5 -3.84375 C 4.601562 -3.539062 4.65625 -3.222656 4.65625 -2.890625 C 4.65625 -2.734375 4.640625 -2.640625 4.609375 -2.609375 C 4.578125 -2.554688 4.519531 -2.53125 4.4375 -2.53125 L 1.078125 -2.53125 C 1.078125 -2.226562 1.117188 -1.953125 1.203125 -1.703125 C 1.265625 -1.492188 1.375 -1.296875 1.53125 -1.109375 C 1.675781 -0.953125 1.84375 -0.835938 2.03125 -0.765625 C 2.238281 -0.679688 2.453125 -0.640625 2.671875 -0.640625 C 2.910156 -0.640625 3.101562 -0.660156 3.25 -0.703125 C 3.363281 -0.742188 3.503906 -0.800781 3.671875 -0.875 C 3.785156 -0.925781 3.882812 -0.976562 3.96875 -1.03125 C 4.050781 -1.082031 4.117188 -1.109375 4.171875 -1.109375 C 4.242188 -1.109375 4.300781 -1.082031 4.34375 -1.03125 L 4.59375 -0.703125 C 4.5 -0.578125 4.363281 -0.460938 4.1875 -0.359375 C 3.976562 -0.234375 3.816406 -0.148438 3.703125 -0.109375 C 3.484375 -0.0351562 3.300781 0.0078125 3.15625 0.03125 C 2.957031 0.0625 2.78125 0.078125 2.625 0.078125 C 2.257812 0.078125 1.929688 0.0195312 1.640625 -0.09375 C 1.359375 -0.207031 1.101562 -0.382812 0.875 -0.625 C 0.664062 -0.84375 0.5 -1.128906 0.375 -1.484375 C 0.257812 -1.816406 0.203125 -2.203125 0.203125 -2.640625 Z M 1.109375 -3.078125 L 3.859375 -3.078125 C 3.859375 -3.265625 3.828125 -3.445312 3.765625 -3.625 C 3.703125 -3.832031 3.625 -3.984375 3.53125 -4.078125 C 3.414062 -4.203125 3.28125 -4.296875 3.125 -4.359375 C 2.96875 -4.429688 2.785156 -4.46875 2.578125 -4.46875 L 2.578125 -4.484375 C 2.148438 -4.484375 1.816406 -4.359375 1.578125 -4.109375 C 1.328125 -3.847656 1.171875 -3.503906 1.109375 -3.078125 Z M 1.109375 -3.078125 "></path></g></g></g><g fill="#ffffff" fill-opacity="1"><g transform="translate(64.968922, 57.670581)"><g><path d="M 0.328125 0 L 0.328125 -0.421875 C 0.328125 -0.535156 0.378906 -0.601562 0.484375 -0.625 L 1.046875 -0.734375 L 1.046875 -6.4375 C 0.722656 -6.488281 0.519531 -6.523438 0.4375 -6.546875 C 0.363281 -6.566406 0.328125 -6.628906 0.328125 -6.734375 L 0.328125 -7.140625 L 2.734375 -7.140625 L 2.734375 -6.734375 C 2.734375 -6.628906 2.703125 -6.566406 2.640625 -6.546875 C 2.566406 -6.523438 2.363281 -6.488281 2.03125 -6.4375 L 2.03125 -3.96875 L 5.875 -3.96875 L 5.875 -6.4375 C 5.550781 -6.488281 5.347656 -6.523438 5.265625 -6.546875 C 5.191406 -6.566406 5.15625 -6.628906 5.15625 -6.734375 L 5.15625 -7.140625 L 7.578125 -7.140625 L 7.578125 -6.734375 C 7.578125 -6.617188 7.53125 -6.550781 7.4375 -6.53125 L 6.84375 -6.4375 L 6.84375 -0.734375 C 7.125 -0.679688 7.328125 -0.640625 7.453125 -0.609375 C 7.523438 -0.585938 7.5625 -0.523438 7.5625 -0.421875 L 7.5625 0 L 5.15625 0 L 5.15625 -0.421875 C 5.15625 -0.523438 5.207031 -0.59375 5.3125 -0.625 L 5.875 -0.734375 L 5.875 -3.25 L 2.015625 -3.25 L 2.015625 -0.734375 C 2.492188 -0.628906 2.734375 -0.523438 2.734375 -0.421875 L 2.734375 0 Z M 0.328125 0 "></path></g></g></g><g fill="#ffffff" fill-opacity="1"><g transform="translate(72.836603, 57.670581)"><g><path d="M 0.140625 -4.625 L 0.140625 -5.046875 L 1.75 -5.046875 L 1.75 -1.84375 C 1.75 -1.445312 1.835938 -1.144531 2.015625 -0.9375 C 2.191406 -0.726562 2.457031 -0.625 2.8125 -0.625 C 3.3125 -0.625 3.769531 -0.851562 4.1875 -1.3125 L 4.1875 -4.3125 C 4.125 -4.332031 3.929688 -4.375 3.609375 -4.4375 C 3.515625 -4.445312 3.46875 -4.507812 3.46875 -4.625 L 3.46875 -5.046875 L 5.0625 -5.046875 L 5.0625 -0.71875 C 5.382812 -0.65625 5.578125 -0.613281 5.640625 -0.59375 C 5.742188 -0.582031 5.796875 -0.523438 5.796875 -0.421875 L 5.796875 0.015625 L 4.546875 0.015625 C 4.421875 0.015625 4.34375 -0.0507812 4.3125 -0.1875 L 4.234375 -0.71875 C 3.753906 -0.175781 3.191406 0.09375 2.546875 0.09375 C 2.015625 0.09375 1.597656 -0.0820312 1.296875 -0.4375 C 1.003906 -0.800781 0.859375 -1.265625 0.859375 -1.828125 L 0.859375 -4.328125 C 0.546875 -4.378906 0.359375 -4.414062 0.296875 -4.4375 C 0.191406 -4.457031 0.140625 -4.519531 0.140625 -4.625 Z M 0.140625 -4.625 "></path></g></g></g><g fill="#ffffff" fill-opacity="1"><g transform="translate(78.882296, 57.670581)"><g><path d="M 0.34375 0 L 0.34375 -0.421875 C 0.34375 -0.523438 0.390625 -0.585938 0.484375 -0.609375 L 1.0625 -0.71875 L 1.0625 -4.328125 C 0.726562 -4.390625 0.535156 -4.425781 0.484375 -4.4375 C 0.390625 -4.457031 0.34375 -4.519531 0.34375 -4.625 L 0.34375 -5.046875 L 1.578125 -5.046875 C 1.703125 -5.046875 1.78125 -4.988281 1.8125 -4.875 L 1.890625 -4.359375 L 1.890625 -4.34375 C 2.316406 -4.875 2.789062 -5.140625 3.3125 -5.140625 C 3.65625 -5.140625 3.9375 -5.039062 4.15625 -4.84375 C 4.363281 -4.65625 4.515625 -4.398438 4.609375 -4.078125 C 4.753906 -4.429688 4.972656 -4.695312 5.265625 -4.875 C 5.566406 -5.050781 5.863281 -5.140625 6.15625 -5.140625 C 6.4375 -5.140625 6.691406 -5.09375 6.921875 -5 C 7.140625 -4.925781 7.320312 -4.800781 7.46875 -4.625 C 7.757812 -4.289062 7.90625 -3.820312 7.90625 -3.21875 L 7.90625 -0.71875 C 8.238281 -0.65625 8.429688 -0.613281 8.484375 -0.59375 C 8.585938 -0.582031 8.640625 -0.523438 8.640625 -0.421875 L 8.640625 0.015625 L 7.03125 0.015625 L 7.03125 -3.203125 C 7.03125 -3.609375 6.941406 -3.910156 6.765625 -4.109375 C 6.585938 -4.304688 6.335938 -4.40625 6.015625 -4.40625 C 5.703125 -4.40625 5.445312 -4.304688 5.25 -4.109375 C 5.03125 -3.890625 4.921875 -3.59375 4.921875 -3.21875 L 4.921875 -0.71875 C 4.929688 -0.71875 4.960938 -0.707031 5.015625 -0.6875 C 5.066406 -0.675781 5.132812 -0.660156 5.21875 -0.640625 C 5.300781 -0.628906 5.390625 -0.613281 5.484375 -0.59375 C 5.585938 -0.582031 5.640625 -0.523438 5.640625 -0.421875 L 5.640625 0.015625 L 4.03125 0.015625 L 4.03125 -3.21875 C 4.03125 -4.007812 3.710938 -4.40625 3.078125 -4.40625 C 2.660156 -4.40625 2.28125 -4.1875 1.9375 -3.75 L 1.9375 -0.71875 L 2.21875 -0.671875 C 2.394531 -0.628906 2.492188 -0.609375 2.515625 -0.609375 C 2.617188 -0.585938 2.671875 -0.523438 2.671875 -0.421875 L 2.671875 0 Z M 0.34375 0 "></path></g></g></g><g fill="#ffffff" fill-opacity="1"><g transform="translate(87.758398, 57.670581)"><g><path d="M 0.234375 -1.28125 C 0.234375 -1.488281 0.289062 -1.679688 0.40625 -1.859375 C 0.519531 -2.046875 0.695312 -2.210938 0.9375 -2.359375 C 1.207031 -2.515625 1.523438 -2.632812 1.890625 -2.71875 C 2.296875 -2.800781 2.785156 -2.84375 3.359375 -2.84375 L 3.359375 -3.234375 C 3.359375 -3.628906 3.269531 -3.929688 3.09375 -4.140625 C 2.914062 -4.335938 2.664062 -4.4375 2.34375 -4.4375 C 2.132812 -4.4375 1.953125 -4.40625 1.796875 -4.34375 C 1.640625 -4.289062 1.515625 -4.234375 1.421875 -4.171875 C 1.234375 -4.054688 1.132812 -4 1.125 -4 C 1.0625 -3.945312 0.984375 -3.921875 0.890625 -3.921875 C 0.828125 -3.921875 0.773438 -3.929688 0.734375 -3.953125 C 0.691406 -3.984375 0.660156 -4.023438 0.640625 -4.078125 L 0.484375 -4.359375 C 0.734375 -4.609375 1.03125 -4.804688 1.375 -4.953125 C 1.675781 -5.085938 2.035156 -5.15625 2.453125 -5.15625 C 2.742188 -5.15625 3 -5.109375 3.21875 -5.015625 C 3.4375 -4.910156 3.617188 -4.78125 3.765625 -4.625 C 3.910156 -4.46875 4.023438 -4.269531 4.109375 -4.03125 C 4.179688 -3.8125 4.21875 -3.550781 4.21875 -3.25 L 4.21875 -0.734375 C 4.507812 -0.671875 4.675781 -0.632812 4.71875 -0.625 L 4.71875 -0.640625 C 4.757812 -0.628906 4.789062 -0.601562 4.8125 -0.5625 C 4.84375 -0.53125 4.859375 -0.492188 4.859375 -0.453125 L 4.859375 -0.015625 L 3.828125 -0.015625 C 3.765625 -0.015625 3.691406 -0.03125 3.609375 -0.0625 C 3.566406 -0.0703125 3.535156 -0.125 3.515625 -0.21875 L 3.40625 -0.703125 C 3.332031 -0.640625 3.203125 -0.53125 3.015625 -0.375 C 2.878906 -0.269531 2.75 -0.1875 2.625 -0.125 C 2.445312 -0.0625 2.296875 -0.015625 2.171875 0.015625 C 2.035156 0.046875 1.859375 0.0625 1.640625 0.0625 C 1.453125 0.0625 1.269531 0.0351562 1.09375 -0.015625 C 0.894531 -0.0859375 0.742188 -0.171875 0.640625 -0.265625 C 0.523438 -0.367188 0.425781 -0.503906 0.34375 -0.671875 C 0.269531 -0.835938 0.234375 -1.039062 0.234375 -1.28125 Z M 1.078125 -1.3125 C 1.078125 -1.207031 1.101562 -1.097656 1.15625 -0.984375 C 1.195312 -0.878906 1.253906 -0.796875 1.328125 -0.734375 C 1.398438 -0.679688 1.488281 -0.640625 1.59375 -0.609375 C 1.695312 -0.578125 1.804688 -0.5625 1.921875 -0.5625 C 2.046875 -0.5625 2.179688 -0.578125 2.328125 -0.609375 C 2.453125 -0.628906 2.578125 -0.671875 2.703125 -0.734375 C 2.796875 -0.785156 2.90625 -0.859375 3.03125 -0.953125 C 3.101562 -1.003906 3.203125 -1.097656 3.328125 -1.234375 L 3.328125 -2.28125 C 2.898438 -2.28125 2.554688 -2.253906 2.296875 -2.203125 C 2.054688 -2.160156 1.820312 -2.09375 1.59375 -2 C 1.40625 -1.914062 1.273438 -1.816406 1.203125 -1.703125 C 1.117188 -1.566406 1.078125 -1.4375 1.078125 -1.3125 Z M 1.078125 -1.3125 "></path></g></g></g><g fill="#ffffff" fill-opacity="1"><g transform="translate(92.873605, 57.670581)"><g><path d="M 0.34375 0 L 0.34375 -0.421875 C 0.34375 -0.523438 0.390625 -0.585938 0.484375 -0.609375 L 1.0625 -0.71875 L 1.0625 -4.328125 C 0.726562 -4.390625 0.535156 -4.425781 0.484375 -4.4375 C 0.390625 -4.457031 0.34375 -4.519531 0.34375 -4.625 L 0.34375 -5.046875 L 1.578125 -5.046875 C 1.703125 -5.046875 1.78125 -4.988281 1.8125 -4.875 L 1.890625 -4.328125 C 2.390625 -4.867188 2.953125 -5.140625 3.578125 -5.140625 C 4.117188 -5.140625 4.535156 -4.960938 4.828125 -4.609375 C 5.117188 -4.253906 5.265625 -3.796875 5.265625 -3.234375 L 5.265625 -0.734375 C 5.554688 -0.679688 5.742188 -0.644531 5.828125 -0.625 C 5.929688 -0.59375 5.984375 -0.523438 5.984375 -0.421875 L 5.984375 0 L 4.375 0 L 4.375 -3.21875 C 4.375 -4.03125 4.019531 -4.4375 3.3125 -4.4375 C 2.8125 -4.4375 2.351562 -4.195312 1.9375 -3.71875 L 1.9375 -0.734375 C 1.945312 -0.734375 2.140625 -0.691406 2.515625 -0.609375 C 2.617188 -0.585938 2.671875 -0.523438 2.671875 -0.421875 L 2.671875 0 Z M 0.34375 0 "></path></g></g></g></svg>